<mxfile host="app.diagrams.net" modified="2023-07-19T22:05:07.209Z" agent="Mozilla/5.0 (Windows NT 10.0; Win64; x64) AppleWebKit/537.36 (KHTML, like Gecko) Chrome/114.0.0.0 Safari/537.36" etag="oeriKsaWc57f0mODeCn0" version="21.6.2" type="device">
  <diagram name="Page-1" id="3zrJtsQHXnKD7AGY4TnJ">
    <mxGraphModel dx="4634" dy="1679" grid="0" gridSize="10" guides="1" tooltips="1" connect="1" arrows="1" fold="1" page="0" pageScale="1" pageWidth="827" pageHeight="1100" background="none" math="0" shadow="0">
      <root>
        <mxCell id="0" />
        <mxCell id="1" parent="0" />
        <mxCell id="eHmNXadnh0xyZmfcW7uL-340" value="" style="rounded=0;whiteSpace=wrap;html=1;fillColor=none;strokeColor=#4053d6;" vertex="1" parent="1">
          <mxGeometry x="-481" y="976.73" width="516" height="176" as="geometry" />
        </mxCell>
        <mxCell id="eHmNXadnh0xyZmfcW7uL-335" value="" style="rounded=0;whiteSpace=wrap;html=1;fillColor=none;" vertex="1" parent="1">
          <mxGeometry x="-2803" y="-264" width="1734" height="1102" as="geometry" />
        </mxCell>
        <mxCell id="eHmNXadnh0xyZmfcW7uL-16" value="&lt;b&gt;CruddurVPC&lt;br&gt;&amp;nbsp;10.0.0.0/32&lt;/b&gt;" style="points=[[0,0],[0.25,0],[0.5,0],[0.75,0],[1,0],[1,0.25],[1,0.5],[1,0.75],[1,1],[0.75,1],[0.5,1],[0.25,1],[0,1],[0,0.75],[0,0.5],[0,0.25]];outlineConnect=0;gradientColor=none;html=1;whiteSpace=wrap;fontSize=12;fontStyle=0;container=0;pointerEvents=0;collapsible=0;recursiveResize=0;shape=mxgraph.aws4.group;grIcon=mxgraph.aws4.group_vpc;strokeColor=#248814;fillColor=none;verticalAlign=top;align=left;spacingLeft=30;fontColor=#AAB7B8;dashed=0;" vertex="1" parent="1">
          <mxGeometry x="-822" y="-271" width="1989" height="1103" as="geometry" />
        </mxCell>
        <mxCell id="eHmNXadnh0xyZmfcW7uL-31" style="edgeStyle=orthogonalEdgeStyle;orthogonalLoop=1;jettySize=auto;html=1;startArrow=classic;startFill=1;" edge="1" parent="1" source="eHmNXadnh0xyZmfcW7uL-14" target="eHmNXadnh0xyZmfcW7uL-25">
          <mxGeometry relative="1" as="geometry" />
        </mxCell>
        <mxCell id="eHmNXadnh0xyZmfcW7uL-14" value="" style="sketch=0;outlineConnect=0;fontColor=#232F3E;gradientColor=none;fillColor=#4D27AA;strokeColor=none;dashed=0;verticalLabelPosition=bottom;verticalAlign=top;align=center;html=1;fontSize=12;fontStyle=0;aspect=fixed;pointerEvents=1;shape=mxgraph.aws4.route_table;" vertex="1" parent="1">
          <mxGeometry x="525.76" y="-489.5" width="87.24" height="85" as="geometry" />
        </mxCell>
        <mxCell id="eHmNXadnh0xyZmfcW7uL-18" value="&lt;h4&gt;&lt;b&gt;CruddurRT&lt;/b&gt;&lt;/h4&gt;" style="text;html=1;align=center;verticalAlign=middle;resizable=0;points=[];autosize=1;strokeColor=none;fillColor=none;" vertex="1" parent="1">
          <mxGeometry x="525.76" y="-418" width="81" height="58" as="geometry" />
        </mxCell>
        <mxCell id="eHmNXadnh0xyZmfcW7uL-23" style="edgeStyle=orthogonalEdgeStyle;orthogonalLoop=1;jettySize=auto;html=1;startArrow=classic;startFill=1;" edge="1" parent="1" source="eHmNXadnh0xyZmfcW7uL-17" target="eHmNXadnh0xyZmfcW7uL-14">
          <mxGeometry relative="1" as="geometry">
            <Array as="points">
              <mxPoint x="701" y="-433" />
            </Array>
          </mxGeometry>
        </mxCell>
        <mxCell id="eHmNXadnh0xyZmfcW7uL-21" value="&lt;b&gt;Local (10.0.0.0/32)&lt;/b&gt;" style="text;html=1;align=center;verticalAlign=middle;resizable=0;points=[];autosize=1;strokeColor=none;fillColor=none;" vertex="1" parent="1">
          <mxGeometry x="645" y="-397" width="121" height="26" as="geometry" />
        </mxCell>
        <mxCell id="eHmNXadnh0xyZmfcW7uL-25" value="" style="sketch=0;outlineConnect=0;fontColor=#232F3E;gradientColor=none;fillColor=#4D27AA;strokeColor=none;dashed=0;verticalLabelPosition=bottom;verticalAlign=top;align=center;html=1;fontSize=12;fontStyle=0;aspect=fixed;pointerEvents=1;shape=mxgraph.aws4.internet_gateway;" vertex="1" parent="1">
          <mxGeometry x="242.5" y="-492" width="90" height="90" as="geometry" />
        </mxCell>
        <mxCell id="eHmNXadnh0xyZmfcW7uL-26" value="&lt;h4&gt;CruddurIGW&lt;/h4&gt;" style="text;html=1;align=center;verticalAlign=middle;resizable=0;points=[];autosize=1;strokeColor=none;fillColor=none;" vertex="1" parent="1">
          <mxGeometry x="243.5" y="-418" width="89" height="58" as="geometry" />
        </mxCell>
        <mxCell id="eHmNXadnh0xyZmfcW7uL-32" value="&lt;b&gt;0.0.0.0/32&lt;/b&gt;" style="text;html=1;align=center;verticalAlign=middle;resizable=0;points=[];autosize=1;strokeColor=none;fillColor=none;" vertex="1" parent="1">
          <mxGeometry x="386" y="-466" width="71" height="26" as="geometry" />
        </mxCell>
        <mxCell id="eHmNXadnh0xyZmfcW7uL-96" style="edgeStyle=orthogonalEdgeStyle;orthogonalLoop=1;jettySize=auto;html=1;startArrow=classic;startFill=1;" edge="1" parent="1" source="eHmNXadnh0xyZmfcW7uL-95">
          <mxGeometry relative="1" as="geometry">
            <mxPoint x="-2800" y="44.400000000000006" as="targetPoint" />
          </mxGeometry>
        </mxCell>
        <mxCell id="eHmNXadnh0xyZmfcW7uL-95" value="&lt;h4&gt;&lt;b&gt;cfn-artifacts-007&lt;/b&gt;&lt;/h4&gt;" style="sketch=0;outlineConnect=0;fontColor=#232F3E;gradientColor=none;fillColor=#3F8624;strokeColor=none;dashed=0;verticalLabelPosition=bottom;verticalAlign=top;align=center;html=1;fontSize=12;fontStyle=0;aspect=fixed;pointerEvents=1;shape=mxgraph.aws4.bucket_with_objects;" vertex="1" parent="1">
          <mxGeometry x="-3113" y="5.399999999999999" width="75" height="78" as="geometry" />
        </mxCell>
        <mxCell id="eHmNXadnh0xyZmfcW7uL-97" value="All CFN uploads are&lt;br&gt;stored in this bucket" style="text;html=1;align=center;verticalAlign=middle;resizable=0;points=[];autosize=1;strokeColor=none;fillColor=none;" vertex="1" parent="1">
          <mxGeometry x="-2966" y="8.899999999999999" width="125" height="41" as="geometry" />
        </mxCell>
        <mxCell id="eHmNXadnh0xyZmfcW7uL-153" style="edgeStyle=orthogonalEdgeStyle;orthogonalLoop=1;jettySize=auto;html=1;" edge="1" parent="1" target="eHmNXadnh0xyZmfcW7uL-138">
          <mxGeometry relative="1" as="geometry">
            <mxPoint x="-580.0000000000002" y="-79" as="sourcePoint" />
            <mxPoint x="-282" y="-125" as="targetPoint" />
            <Array as="points">
              <mxPoint x="-347" y="-79" />
              <mxPoint x="-347" y="-125" />
            </Array>
          </mxGeometry>
        </mxCell>
        <mxCell id="eHmNXadnh0xyZmfcW7uL-137" value="&lt;b&gt;ALB&lt;/b&gt;" style="sketch=0;outlineConnect=0;fontColor=#232F3E;gradientColor=none;fillColor=#4D27AA;strokeColor=none;dashed=0;verticalLabelPosition=bottom;verticalAlign=top;align=center;html=1;fontSize=12;fontStyle=0;aspect=fixed;pointerEvents=1;shape=mxgraph.aws4.application_load_balancer;" vertex="1" parent="1">
          <mxGeometry x="-652" y="-132" width="78" height="78" as="geometry" />
        </mxCell>
        <mxCell id="eHmNXadnh0xyZmfcW7uL-138" value="HTTP Listener&lt;br&gt;Port 80" style="rounded=1;whiteSpace=wrap;html=1;" vertex="1" parent="1">
          <mxGeometry x="-276" y="-156" width="120" height="60" as="geometry" />
        </mxCell>
        <mxCell id="eHmNXadnh0xyZmfcW7uL-216" style="edgeStyle=orthogonalEdgeStyle;orthogonalLoop=1;jettySize=auto;html=1;startArrow=classic;startFill=1;" edge="1" parent="1" source="eHmNXadnh0xyZmfcW7uL-140" target="eHmNXadnh0xyZmfcW7uL-210">
          <mxGeometry relative="1" as="geometry">
            <Array as="points">
              <mxPoint x="166" y="48" />
              <mxPoint x="166" y="618" />
            </Array>
          </mxGeometry>
        </mxCell>
        <mxCell id="eHmNXadnh0xyZmfcW7uL-140" value="&lt;div style=&quot;text-align: left;&quot;&gt;&lt;span style=&quot;font-size: 8px; background-color: initial;&quot;&gt;Backend Target Group&lt;/span&gt;&lt;/div&gt;&lt;font style=&quot;font-size: 8px;&quot;&gt;&lt;div style=&quot;text-align: left;&quot;&gt;&lt;span style=&quot;background-color: initial;&quot;&gt;HealthCheck &quot;/api/health-check&quot;&lt;/span&gt;&lt;/div&gt;&lt;div style=&quot;text-align: left;&quot;&gt;Port 4567&lt;/div&gt;&lt;/font&gt;" style="rounded=1;whiteSpace=wrap;html=1;" vertex="1" parent="1">
          <mxGeometry x="-38" y="28" width="120" height="40" as="geometry" />
        </mxCell>
        <mxCell id="eHmNXadnh0xyZmfcW7uL-141" value="&lt;font style=&quot;font-size: 10px;&quot;&gt;Frontend Target Group&lt;br&gt;HealthCheck &quot;/&quot;&lt;/font&gt;" style="rounded=1;whiteSpace=wrap;html=1;" vertex="1" parent="1">
          <mxGeometry x="-38" y="81.5" width="120" height="34" as="geometry" />
        </mxCell>
        <mxCell id="eHmNXadnh0xyZmfcW7uL-143" style="edgeStyle=orthogonalEdgeStyle;orthogonalLoop=1;jettySize=auto;html=1;exitX=1;exitY=0.5;exitDx=0;exitDy=0;startArrow=classic;startFill=1;endArrow=none;endFill=0;" edge="1" parent="1" source="eHmNXadnh0xyZmfcW7uL-142" target="eHmNXadnh0xyZmfcW7uL-138">
          <mxGeometry relative="1" as="geometry">
            <Array as="points">
              <mxPoint x="-78" y="-54" />
              <mxPoint x="-78" y="-128" />
            </Array>
          </mxGeometry>
        </mxCell>
        <mxCell id="eHmNXadnh0xyZmfcW7uL-144" style="edgeStyle=orthogonalEdgeStyle;orthogonalLoop=1;jettySize=auto;html=1;exitX=0.75;exitY=1;exitDx=0;exitDy=0;entryX=0.007;entryY=0.549;entryDx=0;entryDy=0;entryPerimeter=0;" edge="1" parent="1" source="eHmNXadnh0xyZmfcW7uL-142" target="eHmNXadnh0xyZmfcW7uL-140">
          <mxGeometry relative="1" as="geometry">
            <Array as="points">
              <mxPoint x="-186" y="50" />
              <mxPoint x="-43" y="50" />
            </Array>
          </mxGeometry>
        </mxCell>
        <mxCell id="eHmNXadnh0xyZmfcW7uL-145" style="edgeStyle=orthogonalEdgeStyle;orthogonalLoop=1;jettySize=auto;html=1;exitX=0.466;exitY=1;exitDx=0;exitDy=0;entryX=0.003;entryY=0.612;entryDx=0;entryDy=0;exitPerimeter=0;startArrow=classic;startFill=1;entryPerimeter=0;" edge="1" parent="1" source="eHmNXadnh0xyZmfcW7uL-142" target="eHmNXadnh0xyZmfcW7uL-141">
          <mxGeometry relative="1" as="geometry">
            <Array as="points">
              <mxPoint x="-220" y="103" />
              <mxPoint x="-44" y="103" />
            </Array>
          </mxGeometry>
        </mxCell>
        <mxCell id="eHmNXadnh0xyZmfcW7uL-162" style="edgeStyle=orthogonalEdgeStyle;orthogonalLoop=1;jettySize=auto;html=1;exitX=0;exitY=0.5;exitDx=0;exitDy=0;startArrow=classic;startFill=1;endArrow=none;endFill=0;" edge="1" parent="1" source="eHmNXadnh0xyZmfcW7uL-142">
          <mxGeometry relative="1" as="geometry">
            <mxPoint x="-357" y="-79" as="targetPoint" />
            <Array as="points">
              <mxPoint x="-357" y="-54" />
            </Array>
          </mxGeometry>
        </mxCell>
        <mxCell id="eHmNXadnh0xyZmfcW7uL-142" value="HTTP Listener&lt;br&gt;Port 443" style="rounded=1;whiteSpace=wrap;html=1;" vertex="1" parent="1">
          <mxGeometry x="-276" y="-84" width="120" height="60" as="geometry" />
        </mxCell>
        <mxCell id="eHmNXadnh0xyZmfcW7uL-146" value="&lt;font style=&quot;font-size: 9px;&quot;&gt;&lt;b&gt;Forwards to&lt;br&gt;&lt;/b&gt;Host Header: api.eoyebamiji.com&lt;/font&gt;" style="text;html=1;align=left;verticalAlign=middle;resizable=0;points=[];autosize=1;strokeColor=none;fillColor=none;" vertex="1" parent="1">
          <mxGeometry x="-183" y="4" width="151" height="41" as="geometry" />
        </mxCell>
        <mxCell id="eHmNXadnh0xyZmfcW7uL-147" value="&lt;b&gt;Default Route&lt;/b&gt;" style="text;html=1;align=center;verticalAlign=middle;resizable=0;points=[];autosize=1;strokeColor=none;fillColor=none;" vertex="1" parent="1">
          <mxGeometry x="-210" y="68" width="96" height="26" as="geometry" />
        </mxCell>
        <mxCell id="eHmNXadnh0xyZmfcW7uL-148" value="&lt;b&gt;Redirects to&lt;/b&gt;" style="text;html=1;align=center;verticalAlign=middle;resizable=0;points=[];autosize=1;strokeColor=none;fillColor=none;" vertex="1" parent="1">
          <mxGeometry x="-162" y="-98" width="87" height="26" as="geometry" />
        </mxCell>
        <mxCell id="eHmNXadnh0xyZmfcW7uL-158" style="edgeStyle=orthogonalEdgeStyle;orthogonalLoop=1;jettySize=auto;html=1;" edge="1" parent="1" source="eHmNXadnh0xyZmfcW7uL-155" target="eHmNXadnh0xyZmfcW7uL-137">
          <mxGeometry relative="1" as="geometry">
            <Array as="points">
              <mxPoint x="-418" y="-368" />
              <mxPoint x="-418" y="-97" />
            </Array>
          </mxGeometry>
        </mxCell>
        <mxCell id="eHmNXadnh0xyZmfcW7uL-155" value="&lt;p style=&quot;line-height: 90%;&quot;&gt;&lt;br&gt;&lt;/p&gt;" style="sketch=0;points=[[0,0,0],[0.25,0,0],[0.5,0,0],[0.75,0,0],[1,0,0],[0,1,0],[0.25,1,0],[0.5,1,0],[0.75,1,0],[1,1,0],[0,0.25,0],[0,0.5,0],[0,0.75,0],[1,0.25,0],[1,0.5,0],[1,0.75,0]];outlineConnect=0;fontColor=#232F3E;gradientColor=#F54749;gradientDirection=north;fillColor=#C7131F;strokeColor=#ffffff;dashed=0;verticalLabelPosition=bottom;verticalAlign=top;align=center;html=1;fontSize=12;fontStyle=0;aspect=fixed;shape=mxgraph.aws4.resourceIcon;resIcon=mxgraph.aws4.certificate_manager_3;" vertex="1" parent="1">
          <mxGeometry x="-449" y="-391" width="64" height="64" as="geometry" />
        </mxCell>
        <mxCell id="eHmNXadnh0xyZmfcW7uL-157" value="&lt;h4 style=&quot;font-size: 16px;&quot;&gt;&lt;b style=&quot;border-color: var(--border-color); color: rgb(35, 47, 62);&quot;&gt;ACM Certificate&lt;br&gt;&lt;/b&gt;*.eoyebamiji.com&lt;br&gt;&lt;span style=&quot;color: rgb(35, 47, 62);&quot;&gt;&lt;font style=&quot;font-size: 16px;&quot;&gt;eoyebamiji.com&lt;/font&gt;&lt;/span&gt;&lt;/h4&gt;" style="text;html=1;align=center;verticalAlign=middle;resizable=0;points=[];autosize=1;strokeColor=none;fillColor=none;" vertex="1" parent="1">
          <mxGeometry x="-384.5" y="-415" width="149" height="112" as="geometry" />
        </mxCell>
        <mxCell id="eHmNXadnh0xyZmfcW7uL-159" value="&lt;b&gt;attached to&lt;/b&gt;" style="text;html=1;align=center;verticalAlign=middle;resizable=0;points=[];autosize=1;strokeColor=none;fillColor=none;" vertex="1" parent="1">
          <mxGeometry x="-410" y="-310" width="82" height="26" as="geometry" />
        </mxCell>
        <mxCell id="eHmNXadnh0xyZmfcW7uL-160" value="&lt;b&gt;ALB Security group&lt;/b&gt;" style="fillColor=none;strokeColor=#DD3522;verticalAlign=top;fontStyle=0;fontColor=#DD3522;whiteSpace=wrap;html=1;" vertex="1" parent="1">
          <mxGeometry x="-710" y="-185" width="185" height="394" as="geometry" />
        </mxCell>
        <mxCell id="eHmNXadnh0xyZmfcW7uL-164" value="&lt;div style=&quot;border-color: var(--border-color); text-align: justify;&quot;&gt;&lt;b style=&quot;border-color: var(--border-color);&quot;&gt;Ingress&lt;/b&gt;&lt;/div&gt;&lt;div style=&quot;border-color: var(--border-color); text-align: justify;&quot;&gt;&lt;span style=&quot;border-color: var(--border-color); background-color: initial;&quot;&gt;&lt;b&gt;(HTTP)&lt;/b&gt; TCP 80 0.0.0.0/0&lt;/span&gt;&lt;/div&gt;&lt;div style=&quot;border-color: var(--border-color); text-align: justify;&quot;&gt;&lt;span style=&quot;border-color: var(--border-color); background-color: initial;&quot;&gt;&lt;b&gt;(HTTPS)&lt;/b&gt; TCP 443 0.0.0.0/0&lt;/span&gt;&lt;/div&gt;&lt;div style=&quot;border-color: var(--border-color); text-align: justify;&quot;&gt;&lt;br style=&quot;border-color: var(--border-color);&quot;&gt;&lt;/div&gt;&lt;div style=&quot;border-color: var(--border-color); text-align: justify;&quot;&gt;&lt;span style=&quot;border-color: var(--border-color); background-color: initial;&quot;&gt;&lt;b style=&quot;border-color: var(--border-color);&quot;&gt;Outgress&lt;/b&gt;&lt;/span&gt;&lt;/div&gt;&lt;div style=&quot;border-color: var(--border-color); text-align: justify;&quot;&gt;&lt;span style=&quot;border-color: var(--border-color); background-color: initial;&quot;&gt;&lt;b&gt;TCP &lt;/b&gt;ALL 0.0.0.0/0&lt;/span&gt;&lt;/div&gt;" style="text;html=1;align=center;verticalAlign=middle;resizable=0;points=[];autosize=1;strokeColor=none;fillColor=none;" vertex="1" parent="1">
          <mxGeometry x="-700.5" y="-16.5" width="166" height="98" as="geometry" />
        </mxCell>
        <mxCell id="eHmNXadnh0xyZmfcW7uL-51" style="edgeStyle=orthogonalEdgeStyle;orthogonalLoop=1;jettySize=auto;html=1;" edge="1" parent="1">
          <mxGeometry relative="1" as="geometry">
            <mxPoint x="916" y="32.99000000000001" as="sourcePoint" />
            <mxPoint x="742" y="-262.00328859060403" as="targetPoint" />
            <Array as="points">
              <mxPoint x="914" y="33" />
              <mxPoint x="914" y="32" />
              <mxPoint x="945" y="32" />
              <mxPoint x="945" y="-262" />
            </Array>
          </mxGeometry>
        </mxCell>
        <mxCell id="eHmNXadnh0xyZmfcW7uL-36" value="&lt;b&gt;&amp;nbsp; &amp;nbsp;AZ1 (us-east-1b)&lt;/b&gt;" style="fillColor=none;strokeColor=#147EBA;dashed=1;verticalAlign=top;fontStyle=0;fontColor=#147EBA;whiteSpace=wrap;html=1;align=left;movable=1;resizable=1;rotatable=1;deletable=1;editable=1;locked=0;connectable=1;" vertex="1" parent="1">
          <mxGeometry x="199" y="-150" width="706" height="205" as="geometry" />
        </mxCell>
        <mxCell id="eHmNXadnh0xyZmfcW7uL-54" style="edgeStyle=orthogonalEdgeStyle;orthogonalLoop=1;jettySize=auto;html=1;endArrow=none;endFill=0;" edge="1" parent="1">
          <mxGeometry relative="1" as="geometry">
            <mxPoint x="944.4761904761904" y="21.095238095238074" as="targetPoint" />
            <mxPoint x="927" y="291" as="sourcePoint" />
            <Array as="points">
              <mxPoint x="916" y="291" />
              <mxPoint x="944" y="291" />
            </Array>
          </mxGeometry>
        </mxCell>
        <mxCell id="eHmNXadnh0xyZmfcW7uL-2" value="&lt;b&gt;&amp;nbsp; &amp;nbsp;AZ1 (us-east-1a)&lt;/b&gt;" style="fillColor=none;strokeColor=#147EBA;dashed=1;verticalAlign=top;fontStyle=0;fontColor=#147EBA;whiteSpace=wrap;html=1;align=left;" vertex="1" parent="1">
          <mxGeometry x="194" y="100" width="722" height="205" as="geometry" />
        </mxCell>
        <mxCell id="eHmNXadnh0xyZmfcW7uL-17" value="" style="sketch=0;outlineConnect=0;fontColor=#232F3E;gradientColor=none;fillColor=#4D27AA;strokeColor=none;dashed=0;verticalLabelPosition=bottom;verticalAlign=top;align=center;html=1;fontSize=12;fontStyle=0;aspect=fixed;pointerEvents=1;shape=mxgraph.aws4.customer_gateway;" vertex="1" parent="1">
          <mxGeometry x="664" y="-309" width="78" height="78" as="geometry" />
        </mxCell>
        <mxCell id="eHmNXadnh0xyZmfcW7uL-19" value="&lt;h4&gt;VPC Router&lt;/h4&gt;" style="text;html=1;align=center;verticalAlign=middle;resizable=0;points=[];autosize=1;strokeColor=none;fillColor=none;" vertex="1" parent="1">
          <mxGeometry x="661" y="-243" width="85" height="58" as="geometry" />
        </mxCell>
        <mxCell id="eHmNXadnh0xyZmfcW7uL-55" style="edgeStyle=orthogonalEdgeStyle;orthogonalLoop=1;jettySize=auto;html=1;endArrow=none;endFill=0;" edge="1" parent="1">
          <mxGeometry relative="1" as="geometry">
            <mxPoint x="945.4285714285711" y="264.9047619047619" as="targetPoint" />
            <mxPoint x="916" y="533" as="sourcePoint" />
            <Array as="points">
              <mxPoint x="916" y="537" />
              <mxPoint x="945" y="537" />
            </Array>
          </mxGeometry>
        </mxCell>
        <mxCell id="eHmNXadnh0xyZmfcW7uL-37" value="&lt;b&gt;&amp;nbsp; &amp;nbsp;AZ1 (us-east-1c)&lt;/b&gt;" style="fillColor=none;strokeColor=#147EBA;dashed=1;verticalAlign=top;fontStyle=0;fontColor=#147EBA;whiteSpace=wrap;html=1;align=left;" vertex="1" parent="1">
          <mxGeometry x="194" y="354" width="722" height="228" as="geometry" />
        </mxCell>
        <mxCell id="eHmNXadnh0xyZmfcW7uL-56" style="edgeStyle=orthogonalEdgeStyle;orthogonalLoop=1;jettySize=auto;html=1;entryX=1;entryY=0.75;entryDx=0;entryDy=0;endArrow=none;endFill=0;startArrow=none;startFill=0;" edge="1" parent="1">
          <mxGeometry relative="1" as="geometry">
            <mxPoint x="700" y="516.0000000000005" as="sourcePoint" />
            <mxPoint x="916" y="526.0000000000005" as="targetPoint" />
            <Array as="points">
              <mxPoint x="700" y="537" />
              <mxPoint x="916" y="537" />
            </Array>
          </mxGeometry>
        </mxCell>
        <mxCell id="eHmNXadnh0xyZmfcW7uL-39" value="" style="points=[[0,0],[0.25,0],[0.5,0],[0.75,0],[1,0],[1,0.25],[1,0.5],[1,0.75],[1,1],[0.75,1],[0.5,1],[0.25,1],[0,1],[0,0.75],[0,0.5],[0,0.25]];outlineConnect=0;gradientColor=none;html=1;whiteSpace=wrap;fontSize=12;fontStyle=0;container=1;pointerEvents=0;collapsible=0;recursiveResize=0;shape=mxgraph.aws4.group;grIcon=mxgraph.aws4.group_security_group;grStroke=0;strokeColor=#147EBA;fillColor=#E6F2F8;verticalAlign=top;align=left;spacingLeft=30;fontColor=#147EBA;dashed=0;" vertex="1" parent="1">
          <mxGeometry x="641" y="389" width="232" height="126" as="geometry" />
        </mxCell>
        <mxCell id="eHmNXadnh0xyZmfcW7uL-167" value="&lt;b style=&quot;border-color: var(--border-color); color: rgb(20, 126, 186); text-align: left;&quot;&gt;SubnetPrv3&lt;br style=&quot;border-color: var(--border-color);&quot;&gt;10.0.20.0/22&lt;/b&gt;" style="text;html=1;align=center;verticalAlign=middle;resizable=0;points=[];autosize=1;strokeColor=none;fillColor=none;" vertex="1" parent="eHmNXadnh0xyZmfcW7uL-39">
          <mxGeometry x="19.5" y="32" width="85" height="41" as="geometry" />
        </mxCell>
        <mxCell id="eHmNXadnh0xyZmfcW7uL-58" style="edgeStyle=orthogonalEdgeStyle;orthogonalLoop=1;jettySize=auto;html=1;endArrow=none;endFill=0;startArrow=none;startFill=0;" edge="1" parent="1" source="eHmNXadnh0xyZmfcW7uL-38">
          <mxGeometry relative="1" as="geometry">
            <mxPoint x="922" y="290" as="targetPoint" />
            <Array as="points">
              <mxPoint x="713" y="290" />
              <mxPoint x="926" y="290" />
              <mxPoint x="926" y="292" />
            </Array>
          </mxGeometry>
        </mxCell>
        <mxCell id="eHmNXadnh0xyZmfcW7uL-38" value="" style="points=[[0,0],[0.25,0],[0.5,0],[0.75,0],[1,0],[1,0.25],[1,0.5],[1,0.75],[1,1],[0.75,1],[0.5,1],[0.25,1],[0,1],[0,0.75],[0,0.5],[0,0.25]];outlineConnect=0;gradientColor=none;html=1;whiteSpace=wrap;fontSize=12;fontStyle=0;container=1;pointerEvents=0;collapsible=0;recursiveResize=0;shape=mxgraph.aws4.group;grIcon=mxgraph.aws4.group_security_group;grStroke=0;strokeColor=#147EBA;fillColor=#E6F2F8;verticalAlign=top;align=left;spacingLeft=30;fontColor=#147EBA;dashed=0;" vertex="1" parent="1">
          <mxGeometry x="645" y="124" width="192" height="90" as="geometry" />
        </mxCell>
        <mxCell id="eHmNXadnh0xyZmfcW7uL-166" value="&lt;b style=&quot;border-color: var(--border-color); color: rgb(20, 126, 186); text-align: left;&quot;&gt;SubnetPrv2&lt;br style=&quot;border-color: var(--border-color);&quot;&gt;10.0.16.0/22&lt;/b&gt;" style="text;html=1;align=center;verticalAlign=middle;resizable=0;points=[];autosize=1;strokeColor=none;fillColor=none;" vertex="1" parent="eHmNXadnh0xyZmfcW7uL-38">
          <mxGeometry x="18" y="31" width="85" height="41" as="geometry" />
        </mxCell>
        <mxCell id="eHmNXadnh0xyZmfcW7uL-59" style="edgeStyle=orthogonalEdgeStyle;orthogonalLoop=1;jettySize=auto;html=1;endArrow=none;endFill=0;startArrow=none;startFill=0;" edge="1" parent="1" source="eHmNXadnh0xyZmfcW7uL-42">
          <mxGeometry relative="1" as="geometry">
            <mxPoint x="717" y="288" as="targetPoint" />
            <Array as="points">
              <mxPoint x="590" y="288" />
            </Array>
          </mxGeometry>
        </mxCell>
        <mxCell id="eHmNXadnh0xyZmfcW7uL-42" value="" style="points=[[0,0],[0.25,0],[0.5,0],[0.75,0],[1,0],[1,0.25],[1,0.5],[1,0.75],[1,1],[0.75,1],[0.5,1],[0.25,1],[0,1],[0,0.75],[0,0.5],[0,0.25]];outlineConnect=0;gradientColor=none;html=1;whiteSpace=wrap;fontSize=12;fontStyle=0;container=1;pointerEvents=0;collapsible=0;recursiveResize=0;shape=mxgraph.aws4.group;grIcon=mxgraph.aws4.group_security_group;grStroke=0;strokeColor=#248814;fillColor=#E9F3E6;verticalAlign=top;align=left;spacingLeft=30;fontColor=#248814;dashed=0;" vertex="1" parent="1">
          <mxGeometry x="218" y="128" width="391" height="119" as="geometry" />
        </mxCell>
        <mxCell id="eHmNXadnh0xyZmfcW7uL-57" style="edgeStyle=orthogonalEdgeStyle;orthogonalLoop=1;jettySize=auto;html=1;endArrow=none;endFill=0;startArrow=none;startFill=0;" edge="1" parent="1" source="eHmNXadnh0xyZmfcW7uL-41">
          <mxGeometry relative="1" as="geometry">
            <mxPoint x="701" y="531" as="targetPoint" />
            <Array as="points">
              <mxPoint x="586" y="534" />
              <mxPoint x="701" y="534" />
            </Array>
          </mxGeometry>
        </mxCell>
        <mxCell id="eHmNXadnh0xyZmfcW7uL-41" value="" style="points=[[0,0],[0.25,0],[0.5,0],[0.75,0],[1,0],[1,0.25],[1,0.5],[1,0.75],[1,1],[0.75,1],[0.5,1],[0.25,1],[0,1],[0,0.75],[0,0.5],[0,0.25]];outlineConnect=0;gradientColor=none;html=1;whiteSpace=wrap;fontSize=12;fontStyle=0;container=1;pointerEvents=0;collapsible=0;recursiveResize=0;shape=mxgraph.aws4.group;grIcon=mxgraph.aws4.group_security_group;grStroke=0;strokeColor=#248814;fillColor=#E9F3E6;verticalAlign=top;align=left;spacingLeft=30;fontColor=#248814;dashed=0;" vertex="1" parent="1">
          <mxGeometry x="216" y="389" width="389" height="125" as="geometry" />
        </mxCell>
        <mxCell id="eHmNXadnh0xyZmfcW7uL-62" style="edgeStyle=orthogonalEdgeStyle;orthogonalLoop=1;jettySize=auto;html=1;endArrow=none;endFill=0;startArrow=none;startFill=0;" edge="1" parent="1" source="eHmNXadnh0xyZmfcW7uL-12">
          <mxGeometry relative="1" as="geometry">
            <mxPoint x="926" y="33" as="targetPoint" />
            <Array as="points">
              <mxPoint x="593" y="33" />
              <mxPoint x="716" y="33" />
            </Array>
          </mxGeometry>
        </mxCell>
        <mxCell id="eHmNXadnh0xyZmfcW7uL-12" value="" style="points=[[0,0,0,0,0],[0,0.25,0,0,0],[0,0.5,0,0,0],[0,0.75,0,0,0],[0,1,0,0,0],[0.25,0,0,0,0],[0.25,1,0,0,0],[0.5,0,0,0,0],[0.5,1,0,0,0],[0.75,0,0,0,0],[0.75,1,0,0,0],[1,0,0,0,0],[1,0.25,0,0,0],[1,0.5,0,0,0],[1,0.75,0,0,0],[1,1,0,0,0]];outlineConnect=0;gradientColor=none;html=1;whiteSpace=wrap;fontSize=12;fontStyle=0;container=1;pointerEvents=0;collapsible=0;recursiveResize=0;shape=mxgraph.aws4.group;grIcon=mxgraph.aws4.group_security_group;grStroke=0;strokeColor=#248814;fillColor=#E9F3E6;verticalAlign=top;align=left;spacingLeft=30;fontColor=#248814;dashed=0;" vertex="1" parent="1">
          <mxGeometry x="216" y="-122" width="670" height="105" as="geometry" />
        </mxCell>
        <mxCell id="eHmNXadnh0xyZmfcW7uL-64" value="Subnet Direct Associations" style="text;html=1;align=center;verticalAlign=middle;resizable=0;points=[];autosize=1;strokeColor=none;fillColor=none;fontStyle=1" vertex="1" parent="1">
          <mxGeometry x="770" y="-264" width="174" height="26" as="geometry" />
        </mxCell>
        <mxCell id="eHmNXadnh0xyZmfcW7uL-132" value="" style="group;labelBorderColor=#d66413;strokeColor=#d25f17;" vertex="1" connectable="0" parent="1">
          <mxGeometry x="335" y="-97" width="241" height="815" as="geometry" />
        </mxCell>
        <mxCell id="eHmNXadnh0xyZmfcW7uL-131" value="" style="sketch=0;points=[[0,0,0],[0.25,0,0],[0.5,0,0],[0.75,0,0],[1,0,0],[0,1,0],[0.25,1,0],[0.5,1,0],[0.75,1,0],[1,1,0],[0,0.25,0],[0,0.5,0],[0,0.75,0],[1,0.25,0],[1,0.5,0],[1,0.75,0]];outlineConnect=0;fontColor=#232F3E;gradientColor=#F78E04;gradientDirection=north;fillColor=#D05C17;strokeColor=#ffffff;dashed=0;verticalLabelPosition=bottom;verticalAlign=top;align=center;html=1;fontSize=12;fontStyle=0;aspect=fixed;shape=mxgraph.aws4.resourceIcon;resIcon=mxgraph.aws4.ecs;" vertex="1" parent="eHmNXadnh0xyZmfcW7uL-132">
          <mxGeometry width="25.241852487135507" height="25.241852487135507" as="geometry" />
        </mxCell>
        <mxCell id="eHmNXadnh0xyZmfcW7uL-136" value="&lt;font color=&quot;#db9663&quot;&gt;&lt;b&gt;Cluster (Fargate)&lt;/b&gt;&lt;/font&gt;" style="text;html=1;align=center;verticalAlign=middle;resizable=0;points=[];autosize=1;strokeColor=none;fillColor=none;" vertex="1" parent="eHmNXadnh0xyZmfcW7uL-132">
          <mxGeometry x="33" y="5.591766723842195" width="114" height="26" as="geometry" />
        </mxCell>
        <mxCell id="eHmNXadnh0xyZmfcW7uL-210" value="" style="sketch=0;outlineConnect=0;fontColor=#232F3E;gradientColor=none;fillColor=#D45B07;strokeColor=none;dashed=0;verticalLabelPosition=bottom;verticalAlign=top;align=center;html=1;fontSize=12;fontStyle=0;aspect=fixed;pointerEvents=1;shape=mxgraph.aws4.ecs_service;" vertex="1" parent="eHmNXadnh0xyZmfcW7uL-132">
          <mxGeometry x="25.239999999999995" y="691" width="39" height="48" as="geometry" />
        </mxCell>
        <mxCell id="eHmNXadnh0xyZmfcW7uL-211" value="&lt;font style=&quot;font-size: 10px;&quot;&gt;backend-flask&lt;br&gt;&lt;div style=&quot;text-align: left;&quot;&gt;&lt;span style=&quot;background-color: initial;&quot;&gt;(Fargate service)&lt;/span&gt;&lt;/div&gt;&lt;/font&gt;" style="text;html=1;align=center;verticalAlign=middle;resizable=0;points=[];autosize=1;strokeColor=none;fillColor=none;strokeWidth=0;" vertex="1" parent="eHmNXadnh0xyZmfcW7uL-132">
          <mxGeometry x="64.24" y="701" width="94" height="38" as="geometry" />
        </mxCell>
        <mxCell id="eHmNXadnh0xyZmfcW7uL-133" value="&lt;b style=&quot;border-color: var(--border-color); color: rgb(36, 136, 20); text-align: left;&quot;&gt;SubnetPub1&lt;br style=&quot;border-color: var(--border-color);&quot;&gt;10.0.0.0/22&lt;/b&gt;" style="text;html=1;align=center;verticalAlign=middle;resizable=0;points=[];autosize=1;strokeColor=none;fillColor=none;" vertex="1" parent="1">
          <mxGeometry x="218" y="-91" width="88" height="41" as="geometry" />
        </mxCell>
        <mxCell id="eHmNXadnh0xyZmfcW7uL-134" value="&lt;b style=&quot;border-color: var(--border-color); color: rgb(36, 136, 20); text-align: left;&quot;&gt;SubnetPub2&lt;br style=&quot;border-color: var(--border-color);&quot;&gt;10.0.4.0/22&lt;/b&gt;" style="text;html=1;align=center;verticalAlign=middle;resizable=0;points=[];autosize=1;strokeColor=none;fillColor=none;" vertex="1" parent="1">
          <mxGeometry x="218" y="168" width="88" height="41" as="geometry" />
        </mxCell>
        <mxCell id="eHmNXadnh0xyZmfcW7uL-135" value="&lt;b style=&quot;border-color: var(--border-color); color: rgb(36, 136, 20); text-align: left;&quot;&gt;SubnetPub3&lt;br style=&quot;border-color: var(--border-color);&quot;&gt;10.0.8.0/22&lt;/b&gt;" style="text;html=1;align=center;verticalAlign=middle;resizable=0;points=[];autosize=1;strokeColor=none;fillColor=none;" vertex="1" parent="1">
          <mxGeometry x="216" y="421" width="88" height="41" as="geometry" />
        </mxCell>
        <mxCell id="eHmNXadnh0xyZmfcW7uL-174" value="" style="sketch=0;outlineConnect=0;fontColor=#232F3E;gradientColor=none;fillColor=#4D27AA;strokeColor=none;dashed=0;verticalLabelPosition=bottom;verticalAlign=top;align=center;html=1;fontSize=12;fontStyle=0;aspect=fixed;pointerEvents=1;shape=mxgraph.aws4.namespace;" vertex="1" parent="1">
          <mxGeometry x="978" y="858" width="78" height="78" as="geometry" />
        </mxCell>
        <mxCell id="eHmNXadnh0xyZmfcW7uL-175" value="&lt;b&gt;Cloud Map Namespace&lt;br&gt;&lt;/b&gt;Cruddur" style="text;html=1;align=left;verticalAlign=middle;resizable=0;points=[];autosize=1;strokeColor=none;fillColor=none;" vertex="1" parent="1">
          <mxGeometry x="1056" y="870" width="149" height="41" as="geometry" />
        </mxCell>
        <mxCell id="eHmNXadnh0xyZmfcW7uL-73" value="" style="whiteSpace=wrap;html=1;aspect=fixed;strokeColor=#b0084d;fillColor=#b0084d;gradientColor=none;" vertex="1" parent="1">
          <mxGeometry x="-2800.997619047619" y="-261" width="94.46927374301677" height="94.46927374301677" as="geometry" />
        </mxCell>
        <mxCell id="eHmNXadnh0xyZmfcW7uL-67" value="" style="outlineConnect=0;fontColor=#232F3E;gradientColor=none;fillColor=#FFFFFF;strokeColor=none;dashed=0;verticalLabelPosition=bottom;verticalAlign=top;align=center;html=1;fontSize=12;fontStyle=0;aspect=fixed;pointerEvents=1;shape=mxgraph.aws4.stack;shadow=0;" vertex="1" parent="1">
          <mxGeometry x="-2799.997619047619" y="-259.99698324022347" width="91.9832402234637" height="89.62150837988827" as="geometry" />
        </mxCell>
        <mxCell id="eHmNXadnh0xyZmfcW7uL-68" value="&lt;b&gt;Cruddur Stack&lt;/b&gt;" style="text;html=1;align=center;verticalAlign=middle;resizable=0;points=[];autosize=1;strokeColor=none;fillColor=none;" vertex="1" parent="1">
          <mxGeometry x="-2703.9964285714286" y="-251.00474860335197" width="101" height="26" as="geometry" />
        </mxCell>
        <mxCell id="eHmNXadnh0xyZmfcW7uL-83" value="" style="group" vertex="1" connectable="0" parent="1">
          <mxGeometry x="-1990" y="260.9" width="98" height="95" as="geometry" />
        </mxCell>
        <mxCell id="eHmNXadnh0xyZmfcW7uL-195" style="edgeStyle=orthogonalEdgeStyle;orthogonalLoop=1;jettySize=auto;html=1;startArrow=classic;startFill=1;endArrow=none;endFill=0;" edge="1" parent="eHmNXadnh0xyZmfcW7uL-83" source="eHmNXadnh0xyZmfcW7uL-84">
          <mxGeometry relative="1" as="geometry">
            <mxPoint x="-33" y="-46" as="targetPoint" />
            <Array as="points">
              <mxPoint x="-32" y="13" />
              <mxPoint x="-32" y="-46" />
            </Array>
          </mxGeometry>
        </mxCell>
        <mxCell id="eHmNXadnh0xyZmfcW7uL-84" value="" style="sketch=0;outlineConnect=0;fontColor=#232F3E;gradientColor=none;fillColor=#B0084D;strokeColor=none;dashed=0;verticalLabelPosition=bottom;verticalAlign=top;align=center;html=1;fontSize=12;fontStyle=0;aspect=fixed;pointerEvents=1;shape=mxgraph.aws4.template;" vertex="1" parent="eHmNXadnh0xyZmfcW7uL-83">
          <mxGeometry x="18.846153846153847" width="47.54885672156342" height="57.05862806587611" as="geometry" />
        </mxCell>
        <mxCell id="eHmNXadnh0xyZmfcW7uL-85" value="&lt;div style=&quot;&quot;&gt;&lt;span style=&quot;background-color: initial;&quot;&gt;Service&lt;/span&gt;&lt;/div&gt;&lt;div style=&quot;&quot;&gt;&lt;span style=&quot;background-color: initial;&quot;&gt;&lt;b&gt;(Backend)&lt;/b&gt;&lt;/span&gt;&lt;/div&gt;" style="text;html=1;align=center;verticalAlign=middle;resizable=0;points=[];autosize=1;strokeColor=none;fillColor=none;" vertex="1" parent="eHmNXadnh0xyZmfcW7uL-83">
          <mxGeometry x="4.618049492012929" y="58.99574636119672" width="76" height="41" as="geometry" />
        </mxCell>
        <mxCell id="eHmNXadnh0xyZmfcW7uL-92" value="" style="group" vertex="1" connectable="0" parent="1">
          <mxGeometry x="-1713.0029361980805" y="406.00423167848703" width="140.9334777461525" height="109.40898345153666" as="geometry" />
        </mxCell>
        <mxCell id="eHmNXadnh0xyZmfcW7uL-93" value="" style="sketch=0;outlineConnect=0;fontColor=#232F3E;gradientColor=none;fillColor=#B0084D;strokeColor=none;dashed=0;verticalLabelPosition=bottom;verticalAlign=top;align=center;html=1;fontSize=12;fontStyle=0;aspect=fixed;pointerEvents=1;shape=mxgraph.aws4.template;" vertex="1" parent="eHmNXadnh0xyZmfcW7uL-92">
          <mxGeometry x="27.102591874260096" width="68.3806146572104" height="82.05673758865248" as="geometry" />
        </mxCell>
        <mxCell id="eHmNXadnh0xyZmfcW7uL-94" value="CI/CD" style="text;html=1;align=center;verticalAlign=middle;resizable=0;points=[];autosize=1;strokeColor=none;fillColor=none;" vertex="1" parent="eHmNXadnh0xyZmfcW7uL-92">
          <mxGeometry x="36.58849903025113" y="82.05673758865248" width="51" height="26" as="geometry" />
        </mxCell>
        <mxCell id="eHmNXadnh0xyZmfcW7uL-79" value="" style="group" vertex="1" connectable="0" parent="1">
          <mxGeometry x="-2778" y="220.9" width="115" height="92" as="geometry" />
        </mxCell>
        <mxCell id="eHmNXadnh0xyZmfcW7uL-66" value="" style="sketch=0;outlineConnect=0;fontColor=#232F3E;gradientColor=none;fillColor=#B0084D;strokeColor=none;dashed=0;verticalLabelPosition=bottom;verticalAlign=top;align=center;html=1;fontSize=12;fontStyle=0;aspect=fixed;pointerEvents=1;shape=mxgraph.aws4.template;" vertex="1" parent="eHmNXadnh0xyZmfcW7uL-79">
          <mxGeometry x="22.115384615384613" width="55.22969936735039" height="66.27563924082047" as="geometry" />
        </mxCell>
        <mxCell id="eHmNXadnh0xyZmfcW7uL-69" value="Networking" style="text;html=1;align=center;verticalAlign=middle;resizable=0;points=[];autosize=1;strokeColor=none;fillColor=none;" vertex="1" parent="eHmNXadnh0xyZmfcW7uL-79">
          <mxGeometry x="14.375" y="69" width="78" height="26" as="geometry" />
        </mxCell>
        <mxCell id="eHmNXadnh0xyZmfcW7uL-124" value="" style="group" vertex="1" connectable="0" parent="1">
          <mxGeometry x="-2570" y="190.9" width="153" height="161" as="geometry" />
        </mxCell>
        <mxCell id="eHmNXadnh0xyZmfcW7uL-108" value="" style="whiteSpace=wrap;html=1;aspect=fixed;" vertex="1" parent="eHmNXadnh0xyZmfcW7uL-124">
          <mxGeometry y="8" width="153" height="153" as="geometry" />
        </mxCell>
        <mxCell id="eHmNXadnh0xyZmfcW7uL-109" value="VpcId" style="rounded=1;whiteSpace=wrap;html=1;fillColor=#ddc85f;" vertex="1" parent="eHmNXadnh0xyZmfcW7uL-124">
          <mxGeometry x="27" y="38" width="99" height="16" as="geometry" />
        </mxCell>
        <mxCell id="eHmNXadnh0xyZmfcW7uL-110" value="VpcCidrBlock" style="rounded=1;whiteSpace=wrap;html=1;" vertex="1" parent="eHmNXadnh0xyZmfcW7uL-124">
          <mxGeometry x="27" y="57" width="99" height="16" as="geometry" />
        </mxCell>
        <mxCell id="eHmNXadnh0xyZmfcW7uL-111" value="SubnetCidrBlock" style="rounded=1;whiteSpace=wrap;html=1;" vertex="1" parent="eHmNXadnh0xyZmfcW7uL-124">
          <mxGeometry x="27" y="76" width="99" height="16" as="geometry" />
        </mxCell>
        <mxCell id="eHmNXadnh0xyZmfcW7uL-127" style="edgeStyle=orthogonalEdgeStyle;orthogonalLoop=1;jettySize=auto;html=1;endArrow=none;endFill=0;" edge="1" parent="eHmNXadnh0xyZmfcW7uL-124" source="eHmNXadnh0xyZmfcW7uL-112">
          <mxGeometry relative="1" as="geometry">
            <mxPoint x="191" y="44" as="targetPoint" />
          </mxGeometry>
        </mxCell>
        <mxCell id="eHmNXadnh0xyZmfcW7uL-112" value="PublicSubnetIds" style="rounded=1;whiteSpace=wrap;html=1;fillColor=#ddc85f;" vertex="1" parent="eHmNXadnh0xyZmfcW7uL-124">
          <mxGeometry x="27" y="95" width="99" height="16" as="geometry" />
        </mxCell>
        <mxCell id="eHmNXadnh0xyZmfcW7uL-113" value="AvailabilityZones" style="rounded=1;whiteSpace=wrap;html=1;" vertex="1" parent="eHmNXadnh0xyZmfcW7uL-124">
          <mxGeometry x="27" y="133" width="99" height="16" as="geometry" />
        </mxCell>
        <mxCell id="eHmNXadnh0xyZmfcW7uL-114" value="PrivateSubnetIds" style="rounded=1;whiteSpace=wrap;html=1;" vertex="1" parent="eHmNXadnh0xyZmfcW7uL-124">
          <mxGeometry x="27" y="114" width="99" height="16" as="geometry" />
        </mxCell>
        <mxCell id="eHmNXadnh0xyZmfcW7uL-115" value="&lt;h4 style=&quot;line-height: 0%;&quot;&gt;Networking Exports&lt;/h4&gt;" style="text;html=1;align=center;verticalAlign=middle;resizable=0;points=[];autosize=1;strokeColor=none;fillColor=none;strokeWidth=0;sketch=1;curveFitting=1;jiggle=2;opacity=20;" vertex="1" parent="eHmNXadnh0xyZmfcW7uL-124">
          <mxGeometry x="15" width="131" height="44" as="geometry" />
        </mxCell>
        <mxCell id="eHmNXadnh0xyZmfcW7uL-125" style="edgeStyle=orthogonalEdgeStyle;orthogonalLoop=1;jettySize=auto;html=1;entryX=-0.021;entryY=0.311;entryDx=0;entryDy=0;entryPerimeter=0;" edge="1" parent="1" source="eHmNXadnh0xyZmfcW7uL-66" target="eHmNXadnh0xyZmfcW7uL-108">
          <mxGeometry relative="1" as="geometry">
            <Array as="points">
              <mxPoint x="-2590" y="245.89999999999998" />
            </Array>
          </mxGeometry>
        </mxCell>
        <mxCell id="eHmNXadnh0xyZmfcW7uL-126" style="edgeStyle=orthogonalEdgeStyle;orthogonalLoop=1;jettySize=auto;html=1;" edge="1" parent="1" source="eHmNXadnh0xyZmfcW7uL-109" target="eHmNXadnh0xyZmfcW7uL-81">
          <mxGeometry relative="1" as="geometry">
            <Array as="points">
              <mxPoint x="-2345" y="236.89999999999998" />
              <mxPoint x="-2345" y="236.89999999999998" />
            </Array>
          </mxGeometry>
        </mxCell>
        <mxCell id="eHmNXadnh0xyZmfcW7uL-80" value="" style="group" vertex="1" connectable="0" parent="1">
          <mxGeometry x="-2345" y="206.9" width="112" height="96" as="geometry" />
        </mxCell>
        <mxCell id="eHmNXadnh0xyZmfcW7uL-81" value="" style="sketch=0;outlineConnect=0;fontColor=#232F3E;gradientColor=none;fillColor=#B0084D;strokeColor=none;dashed=0;verticalLabelPosition=bottom;verticalAlign=top;align=center;html=1;fontSize=12;fontStyle=0;aspect=fixed;pointerEvents=1;shape=mxgraph.aws4.template;" vertex="1" parent="eHmNXadnh0xyZmfcW7uL-80">
          <mxGeometry x="21.538461538461537" width="53.63809523809524" height="64.36571428571429" as="geometry" />
        </mxCell>
        <mxCell id="eHmNXadnh0xyZmfcW7uL-82" value="Cluster" style="text;html=1;align=center;verticalAlign=middle;resizable=0;points=[];autosize=1;strokeColor=none;fillColor=none;" vertex="1" parent="eHmNXadnh0xyZmfcW7uL-80">
          <mxGeometry x="25.846153846153847" y="72" width="56" height="26" as="geometry" />
        </mxCell>
        <mxCell id="eHmNXadnh0xyZmfcW7uL-177" value="" style="whiteSpace=wrap;html=1;aspect=fixed;" vertex="1" parent="1">
          <mxGeometry x="-2208" y="185.9" width="153" height="153" as="geometry" />
        </mxCell>
        <mxCell id="eHmNXadnh0xyZmfcW7uL-178" value="VpcId" style="rounded=1;whiteSpace=wrap;html=1;fillColor=#ddc85f;" vertex="1" parent="1">
          <mxGeometry x="-2197.5" y="207.9" width="132" height="19" as="geometry" />
        </mxCell>
        <mxCell id="eHmNXadnh0xyZmfcW7uL-196" style="edgeStyle=orthogonalEdgeStyle;orthogonalLoop=1;jettySize=auto;html=1;" edge="1" parent="1" source="eHmNXadnh0xyZmfcW7uL-179" target="eHmNXadnh0xyZmfcW7uL-189">
          <mxGeometry relative="1" as="geometry">
            <Array as="points">
              <mxPoint x="-2007" y="242.89999999999998" />
              <mxPoint x="-2007" y="183.9" />
            </Array>
          </mxGeometry>
        </mxCell>
        <mxCell id="eHmNXadnh0xyZmfcW7uL-179" value="ServiceSecurityGroupId" style="rounded=1;whiteSpace=wrap;html=1;fillColor=#ddc85f;" vertex="1" parent="1">
          <mxGeometry x="-2198.5" y="232.79999999999995" width="133" height="16" as="geometry" />
        </mxCell>
        <mxCell id="eHmNXadnh0xyZmfcW7uL-198" style="edgeStyle=orthogonalEdgeStyle;orthogonalLoop=1;jettySize=auto;html=1;" edge="1" parent="1" source="eHmNXadnh0xyZmfcW7uL-180" target="eHmNXadnh0xyZmfcW7uL-84">
          <mxGeometry relative="1" as="geometry">
            <Array as="points">
              <mxPoint x="-2041" y="261.9" />
              <mxPoint x="-2041" y="302.9" />
            </Array>
          </mxGeometry>
        </mxCell>
        <mxCell id="eHmNXadnh0xyZmfcW7uL-180" value="ALBSecurityGroupId" style="rounded=1;whiteSpace=wrap;html=1;fillColor=#ddc85f;" vertex="1" parent="1">
          <mxGeometry x="-2198" y="254.39999999999998" width="132" height="16" as="geometry" />
        </mxCell>
        <mxCell id="eHmNXadnh0xyZmfcW7uL-182" value="FrontendTGArn" style="rounded=1;whiteSpace=wrap;html=1;fillColor=#ffffff;" vertex="1" parent="1">
          <mxGeometry x="-2196" y="277.9" width="130" height="16" as="geometry" />
        </mxCell>
        <mxCell id="eHmNXadnh0xyZmfcW7uL-199" style="edgeStyle=orthogonalEdgeStyle;orthogonalLoop=1;jettySize=auto;html=1;" edge="1" parent="1" source="eHmNXadnh0xyZmfcW7uL-184" target="eHmNXadnh0xyZmfcW7uL-84">
          <mxGeometry relative="1" as="geometry">
            <Array as="points">
              <mxPoint x="-1992" y="310.9" />
              <mxPoint x="-1992" y="310.9" />
            </Array>
          </mxGeometry>
        </mxCell>
        <mxCell id="eHmNXadnh0xyZmfcW7uL-184" value="BackendTGArn" style="rounded=1;whiteSpace=wrap;html=1;fillColor=#ddc85f;" vertex="1" parent="1">
          <mxGeometry x="-2195.5" y="298.9" width="130" height="16" as="geometry" />
        </mxCell>
        <mxCell id="eHmNXadnh0xyZmfcW7uL-185" value="&lt;h4 style=&quot;line-height: 0%;&quot;&gt;Cluster Exports&lt;/h4&gt;" style="text;html=1;align=center;verticalAlign=middle;resizable=0;points=[];autosize=1;strokeColor=none;fillColor=none;strokeWidth=0;sketch=1;curveFitting=1;jiggle=2;opacity=20;" vertex="1" parent="1">
          <mxGeometry x="-2185.5" y="176.9" width="107" height="44" as="geometry" />
        </mxCell>
        <mxCell id="eHmNXadnh0xyZmfcW7uL-187" style="edgeStyle=orthogonalEdgeStyle;orthogonalLoop=1;jettySize=auto;html=1;entryX=0.007;entryY=0.346;entryDx=0;entryDy=0;entryPerimeter=0;" edge="1" parent="1" source="eHmNXadnh0xyZmfcW7uL-81" target="eHmNXadnh0xyZmfcW7uL-177">
          <mxGeometry relative="1" as="geometry">
            <mxPoint x="-2207" y="234.89999999999998" as="targetPoint" />
            <Array as="points">
              <mxPoint x="-2239" y="238.89999999999998" />
              <mxPoint x="-2208" y="238.89999999999998" />
            </Array>
          </mxGeometry>
        </mxCell>
        <mxCell id="eHmNXadnh0xyZmfcW7uL-188" value="" style="group" vertex="1" connectable="0" parent="1">
          <mxGeometry x="-1990" y="139.9" width="98" height="99.99574636119672" as="geometry" />
        </mxCell>
        <mxCell id="eHmNXadnh0xyZmfcW7uL-189" value="" style="sketch=0;outlineConnect=0;fontColor=#232F3E;gradientColor=none;fillColor=#B0084D;strokeColor=none;dashed=0;verticalLabelPosition=bottom;verticalAlign=top;align=center;html=1;fontSize=12;fontStyle=0;aspect=fixed;pointerEvents=1;shape=mxgraph.aws4.template;" vertex="1" parent="eHmNXadnh0xyZmfcW7uL-188">
          <mxGeometry x="18.846153846153847" width="47.54885672156342" height="57.05862806587611" as="geometry" />
        </mxCell>
        <mxCell id="eHmNXadnh0xyZmfcW7uL-190" value="&lt;div style=&quot;&quot;&gt;&lt;span style=&quot;background-color: initial;&quot;&gt;Db&lt;/span&gt;&lt;/div&gt;&lt;div style=&quot;&quot;&gt;&lt;b style=&quot;background-color: initial;&quot;&gt;(RDS)&lt;/b&gt;&lt;br&gt;&lt;/div&gt;" style="text;html=1;align=center;verticalAlign=middle;resizable=0;points=[];autosize=1;strokeColor=none;fillColor=none;" vertex="1" parent="eHmNXadnh0xyZmfcW7uL-188">
          <mxGeometry x="15.398049492012928" y="52.99574636119672" width="51" height="41" as="geometry" />
        </mxCell>
        <mxCell id="eHmNXadnh0xyZmfcW7uL-194" style="edgeStyle=orthogonalEdgeStyle;orthogonalLoop=1;jettySize=auto;html=1;entryX=1;entryY=0.5;entryDx=0;entryDy=0;startArrow=classic;startFill=1;endArrow=none;endFill=0;" edge="1" parent="1" source="eHmNXadnh0xyZmfcW7uL-189" target="eHmNXadnh0xyZmfcW7uL-178">
          <mxGeometry relative="1" as="geometry" />
        </mxCell>
        <mxCell id="eHmNXadnh0xyZmfcW7uL-197" style="edgeStyle=orthogonalEdgeStyle;orthogonalLoop=1;jettySize=auto;html=1;endArrow=none;endFill=0;startArrow=classic;startFill=1;" edge="1" parent="1" source="eHmNXadnh0xyZmfcW7uL-84">
          <mxGeometry relative="1" as="geometry">
            <mxPoint x="-2040" y="242.89999999999998" as="targetPoint" />
            <mxPoint x="-1969.1538461538462" y="290.9000000000002" as="sourcePoint" />
            <Array as="points">
              <mxPoint x="-2031" y="290.9" />
              <mxPoint x="-2031" y="242.89999999999998" />
              <mxPoint x="-2039" y="242.89999999999998" />
            </Array>
          </mxGeometry>
        </mxCell>
        <mxCell id="eHmNXadnh0xyZmfcW7uL-200" value="&lt;b&gt;Service SG&lt;/b&gt;" style="fillColor=none;strokeColor=#DD3522;verticalAlign=top;fontStyle=0;fontColor=#DD3522;whiteSpace=wrap;html=1;" vertex="1" parent="1">
          <mxGeometry x="363" y="-54" width="185" height="533" as="geometry" />
        </mxCell>
        <mxCell id="eHmNXadnh0xyZmfcW7uL-225" style="edgeStyle=orthogonalEdgeStyle;orthogonalLoop=1;jettySize=auto;html=1;startArrow=none;startFill=0;endArrow=none;endFill=0;dashed=1;" edge="1" parent="1" source="eHmNXadnh0xyZmfcW7uL-201" target="eHmNXadnh0xyZmfcW7uL-221">
          <mxGeometry relative="1" as="geometry" />
        </mxCell>
        <mxCell id="eHmNXadnh0xyZmfcW7uL-201" value="" style="sketch=0;outlineConnect=0;fontColor=#232F3E;gradientColor=none;fillColor=#D45B07;strokeColor=none;dashed=0;verticalLabelPosition=bottom;verticalAlign=top;align=center;html=1;fontSize=12;fontStyle=0;aspect=fixed;pointerEvents=1;shape=mxgraph.aws4.ecs_task;" vertex="1" parent="1">
          <mxGeometry x="351.74" y="858" width="54.52" height="70.73" as="geometry" />
        </mxCell>
        <mxCell id="eHmNXadnh0xyZmfcW7uL-202" value="&lt;font style=&quot;font-size: 8px;&quot;&gt;backend-flask&lt;br&gt;&lt;b&gt;(Task Definition)&lt;/b&gt;&lt;/font&gt;" style="text;html=1;align=center;verticalAlign=middle;resizable=0;points=[];autosize=1;strokeColor=none;fillColor=none;" vertex="1" parent="1">
          <mxGeometry x="411" y="872.87" width="80" height="41" as="geometry" />
        </mxCell>
        <mxCell id="eHmNXadnh0xyZmfcW7uL-207" style="edgeStyle=orthogonalEdgeStyle;orthogonalLoop=1;jettySize=auto;html=1;" edge="1" parent="1" source="eHmNXadnh0xyZmfcW7uL-203" target="eHmNXadnh0xyZmfcW7uL-201">
          <mxGeometry relative="1" as="geometry" />
        </mxCell>
        <mxCell id="eHmNXadnh0xyZmfcW7uL-203" value="" style="sketch=0;outlineConnect=0;fontColor=#232F3E;gradientColor=none;fillColor=#D45B07;strokeColor=none;dashed=0;verticalLabelPosition=bottom;verticalAlign=top;align=center;html=1;fontSize=12;fontStyle=0;aspect=fixed;pointerEvents=1;shape=mxgraph.aws4.registry;" vertex="1" parent="1">
          <mxGeometry x="347" y="976.73" width="64" height="64" as="geometry" />
        </mxCell>
        <mxCell id="eHmNXadnh0xyZmfcW7uL-204" value="&lt;font style=&quot;font-size: 10px;&quot;&gt;backend-flask&lt;br&gt;&lt;b&gt;(ECR Repo)&lt;/b&gt;&lt;/font&gt;" style="text;html=1;align=center;verticalAlign=middle;resizable=0;points=[];autosize=1;strokeColor=none;fillColor=none;" vertex="1" parent="1">
          <mxGeometry x="411" y="988.23" width="80" height="41" as="geometry" />
        </mxCell>
        <mxCell id="eHmNXadnh0xyZmfcW7uL-208" style="edgeStyle=orthogonalEdgeStyle;orthogonalLoop=1;jettySize=auto;html=1;" edge="1" parent="1" source="eHmNXadnh0xyZmfcW7uL-205" target="eHmNXadnh0xyZmfcW7uL-203">
          <mxGeometry relative="1" as="geometry" />
        </mxCell>
        <mxCell id="eHmNXadnh0xyZmfcW7uL-205" value="" style="sketch=0;outlineConnect=0;fontColor=#232F3E;gradientColor=none;fillColor=#D45B07;strokeColor=none;dashed=0;verticalLabelPosition=bottom;verticalAlign=top;align=center;html=1;fontSize=12;fontStyle=0;aspect=fixed;pointerEvents=1;shape=mxgraph.aws4.registry;" vertex="1" parent="1">
          <mxGeometry x="347" y="1091.73" width="64" height="64" as="geometry" />
        </mxCell>
        <mxCell id="eHmNXadnh0xyZmfcW7uL-206" value="&lt;font style=&quot;font-size: 10px;&quot;&gt;crudur-python:3.10-slim-buster&lt;br&gt;&lt;div style=&quot;text-align: left;&quot;&gt;&lt;b style=&quot;background-color: initial;&quot;&gt;(ECR repo)&lt;/b&gt;&lt;/div&gt;&lt;/font&gt;" style="text;html=1;align=center;verticalAlign=middle;resizable=0;points=[];autosize=1;strokeColor=none;fillColor=none;" vertex="1" parent="1">
          <mxGeometry x="416.5" y="1105.23" width="154" height="38" as="geometry" />
        </mxCell>
        <mxCell id="eHmNXadnh0xyZmfcW7uL-212" style="edgeStyle=orthogonalEdgeStyle;orthogonalLoop=1;jettySize=auto;html=1;" edge="1" parent="1" source="eHmNXadnh0xyZmfcW7uL-210" target="eHmNXadnh0xyZmfcW7uL-201">
          <mxGeometry relative="1" as="geometry" />
        </mxCell>
        <mxCell id="eHmNXadnh0xyZmfcW7uL-209" value="" style="sketch=0;outlineConnect=0;fontColor=#232F3E;gradientColor=none;fillColor=#D45B07;strokeColor=none;dashed=0;verticalLabelPosition=bottom;verticalAlign=top;align=center;html=1;fontSize=12;fontStyle=0;aspect=fixed;pointerEvents=1;shape=mxgraph.aws4.container_1;" vertex="1" parent="1">
          <mxGeometry x="427" y="-30" width="46.45" height="30" as="geometry" />
        </mxCell>
        <mxCell id="eHmNXadnh0xyZmfcW7uL-213" value="&lt;div style=&quot;&quot;&gt;&lt;span style=&quot;background-color: initial;&quot;&gt;backend-flask&lt;/span&gt;&lt;/div&gt;&lt;div style=&quot;&quot;&gt;&lt;span style=&quot;background-color: initial;&quot;&gt;(Task)&lt;/span&gt;&lt;/div&gt;" style="text;html=1;align=center;verticalAlign=middle;resizable=0;points=[];autosize=1;strokeColor=none;fillColor=none;" vertex="1" parent="1">
          <mxGeometry x="413" y="-8" width="92" height="41" as="geometry" />
        </mxCell>
        <mxCell id="eHmNXadnh0xyZmfcW7uL-214" style="edgeStyle=orthogonalEdgeStyle;orthogonalLoop=1;jettySize=auto;html=1;startArrow=classic;startFill=1;" edge="1" parent="1" source="eHmNXadnh0xyZmfcW7uL-210" target="eHmNXadnh0xyZmfcW7uL-209">
          <mxGeometry relative="1" as="geometry">
            <Array as="points">
              <mxPoint x="347" y="618" />
              <mxPoint x="347" y="-15" />
            </Array>
          </mxGeometry>
        </mxCell>
        <mxCell id="eHmNXadnh0xyZmfcW7uL-217" style="edgeStyle=orthogonalEdgeStyle;orthogonalLoop=1;jettySize=auto;html=1;entryX=1;entryY=0.25;entryDx=0;entryDy=0;dashed=1;dashPattern=12 12;strokeColor=#e87567;" edge="1" parent="1" source="eHmNXadnh0xyZmfcW7uL-215" target="eHmNXadnh0xyZmfcW7uL-200">
          <mxGeometry relative="1" as="geometry">
            <Array as="points">
              <mxPoint x="1362" y="79" />
            </Array>
          </mxGeometry>
        </mxCell>
        <mxCell id="eHmNXadnh0xyZmfcW7uL-249" style="edgeStyle=orthogonalEdgeStyle;orthogonalLoop=1;jettySize=auto;html=1;entryX=0.5;entryY=1;entryDx=0;entryDy=0;startArrow=classic;startFill=1;" edge="1" parent="1" source="eHmNXadnh0xyZmfcW7uL-215" target="eHmNXadnh0xyZmfcW7uL-160">
          <mxGeometry relative="1" as="geometry">
            <Array as="points">
              <mxPoint x="1380" y="765" />
              <mxPoint x="-617" y="765" />
            </Array>
          </mxGeometry>
        </mxCell>
        <mxCell id="eHmNXadnh0xyZmfcW7uL-215" value="&lt;div style=&quot;border-color: var(--border-color); text-align: justify;&quot;&gt;&lt;b style=&quot;border-color: var(--border-color);&quot;&gt;Ingress&lt;/b&gt;&lt;/div&gt;&lt;div style=&quot;border-color: var(--border-color); text-align: justify;&quot;&gt;&lt;span style=&quot;border-color: var(--border-color); background-color: initial;&quot;&gt;&lt;b&gt;(HTTP)&lt;/b&gt; TCP 4567 ALBSG ALB HEALTH&lt;/span&gt;&lt;/div&gt;&lt;div style=&quot;border-color: var(--border-color); text-align: justify;&quot;&gt;&lt;span style=&quot;border-color: var(--border-color); background-color: initial;&quot;&gt;&lt;b&gt;(HTTPS)&lt;/b&gt; TCP 443 0.0.0.0/0&lt;/span&gt;&lt;/div&gt;&lt;div style=&quot;border-color: var(--border-color); text-align: justify;&quot;&gt;&lt;br style=&quot;border-color: var(--border-color);&quot;&gt;&lt;/div&gt;&lt;div style=&quot;border-color: var(--border-color); text-align: justify;&quot;&gt;&lt;span style=&quot;border-color: var(--border-color); background-color: initial;&quot;&gt;&lt;b style=&quot;border-color: var(--border-color);&quot;&gt;Outgress&lt;/b&gt;&lt;/span&gt;&lt;/div&gt;&lt;div style=&quot;border-color: var(--border-color); text-align: justify;&quot;&gt;&lt;span style=&quot;border-color: var(--border-color); background-color: initial;&quot;&gt;&lt;b&gt;TCP &lt;/b&gt;ALL 0.0.0.0/0&lt;/span&gt;&lt;/div&gt;" style="text;html=1;align=center;verticalAlign=middle;resizable=0;points=[];autosize=1;strokeColor=none;fillColor=none;" vertex="1" parent="1">
          <mxGeometry x="1264" y="188" width="232" height="98" as="geometry" />
        </mxCell>
        <mxCell id="eHmNXadnh0xyZmfcW7uL-224" style="edgeStyle=orthogonalEdgeStyle;orthogonalLoop=1;jettySize=auto;html=1;startArrow=none;startFill=0;" edge="1" parent="1" source="eHmNXadnh0xyZmfcW7uL-218" target="eHmNXadnh0xyZmfcW7uL-210">
          <mxGeometry relative="1" as="geometry">
            <Array as="points">
              <mxPoint x="288" y="925" />
              <mxPoint x="288" y="632" />
            </Array>
          </mxGeometry>
        </mxCell>
        <mxCell id="eHmNXadnh0xyZmfcW7uL-226" style="edgeStyle=orthogonalEdgeStyle;orthogonalLoop=1;jettySize=auto;html=1;entryX=-0.02;entryY=0.664;entryDx=0;entryDy=0;entryPerimeter=0;endArrow=none;endFill=0;dashed=1;" edge="1" parent="1" source="eHmNXadnh0xyZmfcW7uL-218" target="eHmNXadnh0xyZmfcW7uL-201">
          <mxGeometry relative="1" as="geometry" />
        </mxCell>
        <mxCell id="eHmNXadnh0xyZmfcW7uL-218" value="" style="sketch=0;outlineConnect=0;fontColor=#232F3E;gradientColor=none;fillColor=#BF0816;strokeColor=none;dashed=0;verticalLabelPosition=bottom;verticalAlign=top;align=center;html=1;fontSize=12;fontStyle=0;aspect=fixed;pointerEvents=1;shape=mxgraph.aws4.role;" vertex="1" parent="1">
          <mxGeometry x="164.5" y="903" width="78" height="44" as="geometry" />
        </mxCell>
        <mxCell id="eHmNXadnh0xyZmfcW7uL-219" value="CruddurServiceExecutionRole" style="text;html=1;align=center;verticalAlign=middle;resizable=0;points=[];autosize=1;strokeColor=none;fillColor=none;" vertex="1" parent="1">
          <mxGeometry x="-7.5" y="908" width="179" height="26" as="geometry" />
        </mxCell>
        <mxCell id="eHmNXadnh0xyZmfcW7uL-220" value="CruddurServiceTaskRole" style="text;html=1;align=center;verticalAlign=middle;resizable=0;points=[];autosize=1;strokeColor=none;fillColor=none;" vertex="1" parent="1">
          <mxGeometry x="13.5" y="858" width="151" height="26" as="geometry" />
        </mxCell>
        <mxCell id="eHmNXadnh0xyZmfcW7uL-223" style="edgeStyle=orthogonalEdgeStyle;orthogonalLoop=1;jettySize=auto;html=1;startArrow=none;startFill=0;" edge="1" parent="1" source="eHmNXadnh0xyZmfcW7uL-221" target="eHmNXadnh0xyZmfcW7uL-209">
          <mxGeometry relative="1" as="geometry">
            <Array as="points">
              <mxPoint x="202" y="-15" />
            </Array>
          </mxGeometry>
        </mxCell>
        <mxCell id="eHmNXadnh0xyZmfcW7uL-221" value="" style="sketch=0;outlineConnect=0;fontColor=#232F3E;gradientColor=none;fillColor=#BF0816;strokeColor=none;dashed=0;verticalLabelPosition=bottom;verticalAlign=top;align=center;html=1;fontSize=12;fontStyle=0;aspect=fixed;pointerEvents=1;shape=mxgraph.aws4.role;" vertex="1" parent="1">
          <mxGeometry x="164.5" y="851" width="78" height="44" as="geometry" />
        </mxCell>
        <mxCell id="eHmNXadnh0xyZmfcW7uL-227" value="" style="sketch=0;points=[[0,0,0],[0.25,0,0],[0.5,0,0],[0.75,0,0],[1,0,0],[0,1,0],[0.25,1,0],[0.5,1,0],[0.75,1,0],[1,1,0],[0,0.25,0],[0,0.5,0],[0,0.75,0],[1,0.25,0],[1,0.5,0],[1,0.75,0]];outlineConnect=0;fontColor=#232F3E;gradientColor=#4D72F3;gradientDirection=north;fillColor=#3334B9;strokeColor=#ffffff;dashed=0;verticalLabelPosition=bottom;verticalAlign=top;align=center;html=1;fontSize=12;fontStyle=0;aspect=fixed;shape=mxgraph.aws4.resourceIcon;resIcon=mxgraph.aws4.rds;" vertex="1" parent="1">
          <mxGeometry x="1046" y="-119.5" width="78" height="78" as="geometry" />
        </mxCell>
        <mxCell id="eHmNXadnh0xyZmfcW7uL-230" value="Cruddur-instance&lt;br&gt;(RDS Instance)" style="text;html=1;align=center;verticalAlign=middle;resizable=0;points=[];autosize=1;strokeColor=none;fillColor=none;" vertex="1" parent="1">
          <mxGeometry x="1030" y="-45" width="110" height="41" as="geometry" />
        </mxCell>
        <mxCell id="eHmNXadnh0xyZmfcW7uL-233" style="edgeStyle=orthogonalEdgeStyle;orthogonalLoop=1;jettySize=auto;html=1;" edge="1" parent="1" source="eHmNXadnh0xyZmfcW7uL-231">
          <mxGeometry relative="1" as="geometry">
            <mxPoint x="392.1999999999998" y="646.5999999999999" as="targetPoint" />
            <Array as="points">
              <mxPoint x="637" y="848" />
              <mxPoint x="392" y="848" />
            </Array>
          </mxGeometry>
        </mxCell>
        <mxCell id="eHmNXadnh0xyZmfcW7uL-239" style="edgeStyle=orthogonalEdgeStyle;orthogonalLoop=1;jettySize=auto;html=1;" edge="1" parent="1" source="eHmNXadnh0xyZmfcW7uL-231" target="eHmNXadnh0xyZmfcW7uL-174">
          <mxGeometry relative="1" as="geometry" />
        </mxCell>
        <mxCell id="eHmNXadnh0xyZmfcW7uL-231" value="" style="sketch=0;points=[[0,0,0],[0.25,0,0],[0.5,0,0],[0.75,0,0],[1,0,0],[0,1,0],[0.25,1,0],[0.5,1,0],[0.75,1,0],[1,1,0],[0,0.25,0],[0,0.5,0],[0,0.75,0],[1,0.25,0],[1,0.5,0],[1,0.75,0]];outlineConnect=0;fontColor=#232F3E;gradientColor=#945DF2;gradientDirection=north;fillColor=#5A30B5;strokeColor=#ffffff;dashed=0;verticalLabelPosition=bottom;verticalAlign=top;align=center;html=1;fontSize=12;fontStyle=0;aspect=fixed;shape=mxgraph.aws4.resourceIcon;resIcon=mxgraph.aws4.cloud_map;" vertex="1" parent="1">
          <mxGeometry x="802" y="860" width="74" height="74" as="geometry" />
        </mxCell>
        <mxCell id="eHmNXadnh0xyZmfcW7uL-232" value="backend-flask&lt;br&gt;(Cloud Map Service)" style="text;html=1;align=center;verticalAlign=middle;resizable=0;points=[];autosize=1;strokeColor=none;fillColor=none;" vertex="1" parent="1">
          <mxGeometry x="766" y="941" width="127" height="41" as="geometry" />
        </mxCell>
        <mxCell id="eHmNXadnh0xyZmfcW7uL-236" style="edgeStyle=orthogonalEdgeStyle;orthogonalLoop=1;jettySize=auto;html=1;startArrow=classic;startFill=1;" edge="1" parent="1" source="eHmNXadnh0xyZmfcW7uL-234" target="eHmNXadnh0xyZmfcW7uL-209">
          <mxGeometry relative="1" as="geometry">
            <Array as="points">
              <mxPoint x="659" y="633" />
              <mxPoint x="524" y="633" />
              <mxPoint x="524" y="-15" />
            </Array>
          </mxGeometry>
        </mxCell>
        <mxCell id="eHmNXadnh0xyZmfcW7uL-240" style="edgeStyle=orthogonalEdgeStyle;orthogonalLoop=1;jettySize=auto;html=1;entryX=0;entryY=0.75;entryDx=0;entryDy=0;entryPerimeter=0;" edge="1" parent="1" source="eHmNXadnh0xyZmfcW7uL-234" target="eHmNXadnh0xyZmfcW7uL-231">
          <mxGeometry relative="1" as="geometry" />
        </mxCell>
        <mxCell id="eHmNXadnh0xyZmfcW7uL-234" value="" style="sketch=0;points=[[0,0,0],[0.25,0,0],[0.5,0,0],[0.75,0,0],[1,0,0],[0,1,0],[0.25,1,0],[0.5,1,0],[0.75,1,0],[1,1,0],[0,0.25,0],[0,0.5,0],[0,0.75,0],[1,0.25,0],[1,0.5,0],[1,0.75,0]];outlineConnect=0;fontColor=#232F3E;gradientColor=#945DF2;gradientDirection=north;fillColor=#5A30B5;strokeColor=#ffffff;dashed=0;verticalLabelPosition=bottom;verticalAlign=top;align=center;html=1;fontSize=12;fontStyle=0;aspect=fixed;shape=mxgraph.aws4.resourceIcon;resIcon=mxgraph.aws4.cloud_wan;" vertex="1" parent="1">
          <mxGeometry x="628" y="913.87" width="78" height="78" as="geometry" />
        </mxCell>
        <mxCell id="eHmNXadnh0xyZmfcW7uL-235" value="Cloud Map Resource" style="text;html=1;align=center;verticalAlign=middle;resizable=0;points=[];autosize=1;strokeColor=none;fillColor=none;" vertex="1" parent="1">
          <mxGeometry x="597" y="999" width="131" height="26" as="geometry" />
        </mxCell>
        <mxCell id="eHmNXadnh0xyZmfcW7uL-237" value="&lt;b&gt;e.g. 10.0.0.64&lt;/b&gt;&lt;br&gt;Port 4567" style="text;html=1;align=center;verticalAlign=middle;resizable=0;points=[];autosize=1;strokeColor=none;fillColor=none;" vertex="1" parent="1">
          <mxGeometry x="570.5" y="640" width="92" height="41" as="geometry" />
        </mxCell>
        <mxCell id="eHmNXadnh0xyZmfcW7uL-244" style="edgeStyle=orthogonalEdgeStyle;orthogonalLoop=1;jettySize=auto;html=1;" edge="1" parent="1" source="eHmNXadnh0xyZmfcW7uL-242" target="eHmNXadnh0xyZmfcW7uL-227">
          <mxGeometry relative="1" as="geometry" />
        </mxCell>
        <mxCell id="eHmNXadnh0xyZmfcW7uL-242" value="" style="shape=image;verticalLabelPosition=bottom;labelBackgroundColor=default;verticalAlign=top;aspect=fixed;imageAspect=0;image=data:image/svg+xml,PHN2ZyB4bWxucz0iaHR0cDovL3d3dy53My5vcmcvMjAwMC9zdmciIHhtbDpzcGFjZT0icHJlc2VydmUiIHZpZXdCb3g9IjAgMCA0MzIuMDcxIDQ0NS4zODMiIGhlaWdodD0iNDQ1LjM4M3B0IiB3aWR0aD0iNDMyLjA3MXB0Ij4mI3hhOzxnIHN0eWxlPSJmaWxsLXJ1bGU6bm9uemVybztjbGlwLXJ1bGU6bm9uemVybztzdHJva2U6IzAwMDAwMDtzdHJva2UtbWl0ZXJsaW1pdDo0OyIgaWQ9Im9yZ2luYWwiPiYjeGE7CTwvZz4mI3hhOzxnIHN0eWxlPSJmaWxsLXJ1bGU6bm9uemVybztjbGlwLXJ1bGU6bm9uemVybztmaWxsOm5vbmU7c3Ryb2tlOiNGRkZGRkY7c3Ryb2tlLXdpZHRoOjEyLjQ2NTE7c3Ryb2tlLWxpbmVjYXA6cm91bmQ7c3Ryb2tlLWxpbmVqb2luOnJvdW5kO3N0cm9rZS1taXRlcmxpbWl0OjQ7IiBpZD0iTGF5ZXJfeDAwMjBfMyI+JiN4YTs8cGF0aCBkPSJNMzIzLjIwNSwzMjQuMjI3YzIuODMzLTIzLjYwMSwxLjk4NC0yNy4wNjIsMTkuNTYzLTIzLjIzOWw0LjQ2MywwLjM5MmMxMy41MTcsMC42MTUsMzEuMTk5LTIuMTc0LDQxLjU4Ny03YzIyLjM2Mi0xMC4zNzYsMzUuNjIyLTI3LjcsMTMuNTcyLTIzLjE0OGMtNTAuMjk3LDEwLjM3Ni01My43NTUtNi42NTUtNTMuNzU1LTYuNjU1YzUzLjExMS03OC44MDMsNzUuMzEzLTE3OC44MzYsNTYuMTQ5LTIwMy4zMjIgICAgQzM1Mi41MTQtNS41MzQsMjYyLjAzNiwyNi4wNDksMjYwLjUyMiwyNi44NjlsLTAuNDgyLDAuMDg5Yy05LjkzOC0yLjA2Mi0yMS4wNi0zLjI5NC0zMy41NTQtMy40OTZjLTIyLjc2MS0wLjM3NC00MC4wMzIsNS45NjctNTMuMTMzLDE1LjkwNGMwLDAtMTYxLjQwOC02Ni40OTgtMTUzLjg5OSw4My42MjhjMS41OTcsMzEuOTM2LDQ1Ljc3NywyNDEuNjU1LDk4LjQ3LDE3OC4zMSAgICBjMTkuMjU5LTIzLjE2MywzNy44NzEtNDIuNzQ4LDM3Ljg3MS00Mi43NDhjOS4yNDIsNi4xNCwyMC4zMDcsOS4yNzIsMzEuOTEyLDguMTQ3bDAuODk3LTAuNzY1Yy0wLjI4MSwyLjg3Ni0wLjE1Nyw1LjY4OSwwLjM1OSw5LjAxOWMtMTMuNTcyLDE1LjE2Ny05LjU4NCwxNy44My0zNi43MjMsMjMuNDE2Yy0yNy40NTcsNS42NTktMTEuMzI2LDE1LjczNC0wLjc5NywxOC4zNjdjMTIuNzY4LDMuMTkzLDQyLjMwNSw3LjcxNiw2Mi4yNjgtMjAuMjI0ICAgIGwtMC43OTUsMy4xODhjNS4zMjUsNC4yNiw0Ljk2NSwzMC42MTksNS43Miw0OS40NTJjMC43NTYsMTguODM0LDIuMDE3LDM2LjQwOSw1Ljg1Niw0Ni43NzFjMy44MzksMTAuMzYsOC4zNjksMzcuMDUsNDQuMDM2LDI5LjQwNmMyOS44MDktNi4zODgsNTIuNi0xNS41ODIsNTQuNjc3LTEwMS4xMDciIHN0eWxlPSJmaWxsOiMwMDAwMDA7c3Ryb2tlOiMwMDAwMDA7c3Ryb2tlLXdpZHRoOjM3LjM5NTM7c3Ryb2tlLWxpbmVjYXA6YnV0dDtzdHJva2UtbGluZWpvaW46bWl0ZXI7Ii8+JiN4YTs8cGF0aCBkPSJNNDAyLjM5NSwyNzEuMjNjLTUwLjMwMiwxMC4zNzYtNTMuNzYtNi42NTUtNTMuNzYtNi42NTVjNTMuMTExLTc4LjgwOCw3NS4zMTMtMTc4Ljg0Myw1Ni4xNTMtMjAzLjMyNmMtNTIuMjctNjYuNzg1LTE0Mi43NTItMzUuMi0xNDQuMjYyLTM0LjM4bC0wLjQ4NiwwLjA4N2MtOS45MzgtMi4wNjMtMjEuMDYtMy4yOTItMzMuNTYtMy40OTZjLTIyLjc2MS0wLjM3My00MC4wMjYsNS45NjctNTMuMTI3LDE1LjkwMiAgICBjMCwwLTE2MS40MTEtNjYuNDk1LTE1My45MDQsODMuNjNjMS41OTcsMzEuOTM4LDQ1Ljc3NiwyNDEuNjU3LDk4LjQ3MSwxNzguMzEyYzE5LjI2LTIzLjE2MywzNy44NjktNDIuNzQ4LDM3Ljg2OS00Mi43NDhjOS4yNDMsNi4xNCwyMC4zMDgsOS4yNzIsMzEuOTA4LDguMTQ3bDAuOTAxLTAuNzY1Yy0wLjI4LDIuODc2LTAuMTUyLDUuNjg5LDAuMzYxLDkuMDE5Yy0xMy41NzUsMTUuMTY3LTkuNTg2LDE3LjgzLTM2LjcyMywyMy40MTYgICAgYy0yNy40NTksNS42NTktMTEuMzI4LDE1LjczNC0wLjc5NiwxOC4zNjdjMTIuNzY4LDMuMTkzLDQyLjMwNyw3LjcxNiw2Mi4yNjYtMjAuMjI0bC0wLjc5NiwzLjE4OGM1LjMxOSw0LjI2LDkuMDU0LDI3LjcxMSw4LjQyOCw0OC45NjljLTAuNjI2LDIxLjI1OS0xLjA0NCwzNS44NTQsMy4xNDcsNDcuMjU0YzQuMTkxLDExLjQsOC4zNjgsMzcuMDUsNDQuMDQyLDI5LjQwNmMyOS44MDktNi4zODgsNDUuMjU2LTIyLjk0Miw0Ny40MDUtNTAuNTU1ICAgIGMxLjUyNS0xOS42MzEsNC45NzYtMTYuNzI5LDUuMTk0LTM0LjI4bDIuNzY4LTguMzA5YzMuMTkyLTI2LjYxMSwwLjUwNy0zNS4xOTYsMTguODcyLTMxLjIwM2w0LjQ2MywwLjM5MmMxMy41MTcsMC42MTUsMzEuMjA4LTIuMTc0LDQxLjU5MS03YzIyLjM1OC0xMC4zNzYsMzUuNjE4LTI3LjcsMTMuNTczLTIzLjE0OHoiIHN0eWxlPSJmaWxsOiMzMzY3OTE7c3Ryb2tlOm5vbmU7Ii8+JiN4YTs8cGF0aCBkPSJNMjE1Ljg2NiwyODYuNDg0Yy0xLjM4NSw0OS41MTYsMC4zNDgsOTkuMzc3LDUuMTkzLDExMS40OTVjNC44NDgsMTIuMTE4LDE1LjIyMywzNS42ODgsNTAuOSwyOC4wNDVjMjkuODA2LTYuMzksNDAuNjUxLTE4Ljc1Niw0NS4zNTctNDYuMDUxYzMuNDY2LTIwLjA4MiwxMC4xNDgtNzUuODU0LDExLjAwNS04Ny4yODEiLz4mI3hhOzxwYXRoIGQ9Ik0xNzMuMTA0LDM4LjI1NmMwLDAtMTYxLjUyMS02Ni4wMTYtMTU0LjAxMiw4NC4xMDljMS41OTcsMzEuOTM4LDQ1Ljc3OSwyNDEuNjY0LDk4LjQ3MywxNzguMzE2YzE5LjI1Ni0yMy4xNjYsMzYuNjcxLTQxLjMzNSwzNi42NzEtNDEuMzM1Ii8+JiN4YTs8cGF0aCBkPSJNMjYwLjM0OSwyNi4yMDdjLTUuNTkxLDEuNzUzLDg5Ljg0OC0zNC44ODksMTQ0LjA4NywzNC40MTdjMTkuMTU5LDI0LjQ4NC0zLjA0MywxMjQuNTE5LTU2LjE1MywyMDMuMzI5Ii8+JiN4YTs8cGF0aCBkPSJNMzQ4LjI4MiwyNjMuOTUzYzAsMCwzLjQ2MSwxNy4wMzYsNTMuNzY0LDYuNjUzYzIyLjA0LTQuNTUyLDguNzc2LDEyLjc3NC0xMy41NzcsMjMuMTU1Yy0xOC4zNDUsOC41MTQtNTkuNDc0LDEwLjY5Ni02MC4xNDYtMS4wNjljLTEuNzI5LTMwLjM1NSwyMS42NDctMjEuMTMzLDE5Ljk2LTI4LjczOWMtMS41MjUtNi44NS0xMS45NzktMTMuNTczLTE4Ljg5NC0zMC4zMzggICAgYy02LjAzNy0xNC42MzMtODIuNzk2LTEyNi44NDksMjEuMjg3LTExMC4xODNjMy44MTMtMC43ODktMjcuMTQ2LTk5LjAwMi0xMjQuNTUzLTEwMC41OTljLTk3LjM4NS0xLjU5Ny05NC4xOSwxMTkuNzYyLTk0LjE5LDExOS43NjIiIHN0eWxlPSJzdHJva2UtbGluZWpvaW46YmV2ZWw7Ii8+JiN4YTs8cGF0aCBkPSJNMTg4LjYwNCwyNzQuMzM0Yy0xMy41NzcsMTUuMTY2LTkuNTg0LDE3LjgyOS0zNi43MjMsMjMuNDE3Yy0yNy40NTksNS42Ni0xMS4zMjYsMTUuNzMzLTAuNzk3LDE4LjM2NWMxMi43NjgsMy4xOTUsNDIuMzA3LDcuNzE4LDYyLjI2Ni0yMC4yMjljNi4wNzgtOC41MDktMC4wMzYtMjIuMDg2LTguMzg1LTI1LjU0N2MtNC4wMzQtMS42NzEtOS40MjgtMy43NjUtMTYuMzYxLDMuOTk0eiIvPiYjeGE7PHBhdGggZD0iTTE4Ny43MTUsMjc0LjA2OWMtMS4zNjgtOC45MTcsMi45My0xOS41MjgsNy41MzYtMzEuOTQyYzYuOTIyLTE4LjYyNiwyMi44OTMtMzcuMjU1LDEwLjExNy05Ni4zMzljLTkuNTIzLTQ0LjAyOS03My4zOTYtOS4xNjMtNzMuNDM2LTMuMTkzYy0wLjAzOSw1Ljk2OCwyLjg4OSwzMC4yNi0xLjA2Nyw1OC41NDhjLTUuMTYyLDM2LjkxMywyMy40ODgsNjguMTMyLDU2LjQ3OSw2NC45MzgiLz4mI3hhOzxwYXRoIGQ9Ik0xNzIuNTE3LDE0MS43Yy0wLjI4OCwyLjAzOSwzLjczMyw3LjQ4LDguOTc2LDguMjA3YzUuMjM0LDAuNzMsOS43MTQtMy41MjIsOS45OTgtNS41NTljMC4yODQtMi4wMzktMy43MzItNC4yODUtOC45NzctNS4wMTVjLTUuMjM3LTAuNzMxLTkuNzE5LDAuMzMzLTkuOTk2LDIuMzY3eiIgc3R5bGU9ImZpbGw6I0ZGRkZGRjtzdHJva2Utd2lkdGg6NC4xNTU7c3Ryb2tlLWxpbmVjYXA6YnV0dDtzdHJva2UtbGluZWpvaW46bWl0ZXI7Ii8+JiN4YTs8cGF0aCBkPSJNMzMxLjk0MSwxMzcuNTQzYzAuMjg0LDIuMDM5LTMuNzMyLDcuNDgtOC45NzYsOC4yMDdjLTUuMjM4LDAuNzMtOS43MTgtMy41MjItMTAuMDA1LTUuNTU5Yy0wLjI3Ny0yLjAzOSwzLjc0LTQuMjg1LDguOTc5LTUuMDE1YzUuMjM5LTAuNzMsOS43MTgsMC4zMzMsMTAuMDAyLDIuMzY4eiIgc3R5bGU9ImZpbGw6I0ZGRkZGRjtzdHJva2Utd2lkdGg6Mi4wNzc1O3N0cm9rZS1saW5lY2FwOmJ1dHQ7c3Ryb2tlLWxpbmVqb2luOm1pdGVyOyIvPiYjeGE7PHBhdGggZD0iTTM1MC42NzYsMTIzLjQzMmMwLjg2MywxNS45OTQtMy40NDUsMjYuODg4LTMuOTg4LDQzLjkxNGMtMC44MDQsMjQuNzQ4LDExLjc5OSw1My4wNzQtNy4xOTEsODEuNDM1Ii8+JiN4YTs8cGF0aCBkPSJNMCw2MC4yMzIiIHN0eWxlPSJzdHJva2Utd2lkdGg6MzsiLz4mI3hhOzwvZz4mI3hhOzwvc3ZnPg==;" vertex="1" parent="1">
          <mxGeometry x="672.1" y="-113" width="63.1" height="65" as="geometry" />
        </mxCell>
        <mxCell id="eHmNXadnh0xyZmfcW7uL-243" value="Cruddur&lt;br&gt;(postgres database)" style="text;html=1;align=center;verticalAlign=middle;resizable=0;points=[];autosize=1;strokeColor=none;fillColor=none;" vertex="1" parent="1">
          <mxGeometry x="638" y="-54" width="125" height="41" as="geometry" />
        </mxCell>
        <mxCell id="eHmNXadnh0xyZmfcW7uL-247" style="edgeStyle=orthogonalEdgeStyle;orthogonalLoop=1;jettySize=auto;html=1;strokeColor=#df3522;dashed=1;dashPattern=8 8;" edge="1" parent="1" source="eHmNXadnh0xyZmfcW7uL-245" target="eHmNXadnh0xyZmfcW7uL-246">
          <mxGeometry relative="1" as="geometry">
            <Array as="points">
              <mxPoint x="710" y="-203" />
              <mxPoint x="1314" y="-203" />
            </Array>
          </mxGeometry>
        </mxCell>
        <mxCell id="eHmNXadnh0xyZmfcW7uL-245" value="&lt;b&gt;CruddurRDSSG&lt;/b&gt;" style="fillColor=none;strokeColor=#DD3522;verticalAlign=top;fontStyle=0;fontColor=#DD3522;whiteSpace=wrap;html=1;" vertex="1" parent="1">
          <mxGeometry x="617" y="-140" width="185" height="134" as="geometry" />
        </mxCell>
        <mxCell id="eHmNXadnh0xyZmfcW7uL-248" style="edgeStyle=orthogonalEdgeStyle;orthogonalLoop=1;jettySize=auto;html=1;entryX=1;entryY=0.219;entryDx=0;entryDy=0;entryPerimeter=0;endArrow=classic;endFill=1;" edge="1" parent="1" source="eHmNXadnh0xyZmfcW7uL-246" target="eHmNXadnh0xyZmfcW7uL-200">
          <mxGeometry relative="1" as="geometry">
            <Array as="points">
              <mxPoint x="1326" y="62" />
              <mxPoint x="549" y="62" />
            </Array>
          </mxGeometry>
        </mxCell>
        <mxCell id="eHmNXadnh0xyZmfcW7uL-246" value="&lt;div style=&quot;border-color: var(--border-color); text-align: justify;&quot;&gt;&lt;b style=&quot;border-color: var(--border-color);&quot;&gt;Ingress&lt;/b&gt;&lt;/div&gt;&lt;div style=&quot;border-color: var(--border-color); text-align: justify;&quot;&gt;&lt;span style=&quot;border-color: var(--border-color); background-color: initial;&quot;&gt;&lt;b&gt;(HTTP)&lt;/b&gt; TCP 5432 ServiceSG BACKEND&lt;/span&gt;&lt;/div&gt;&lt;div style=&quot;border-color: var(--border-color); text-align: justify;&quot;&gt;&lt;span style=&quot;border-color: var(--border-color); background-color: initial;&quot;&gt;&lt;b&gt;(HTTPS)&lt;/b&gt; TCP 443 0.0.0.0/0&lt;/span&gt;&lt;/div&gt;&lt;div style=&quot;border-color: var(--border-color); text-align: justify;&quot;&gt;&lt;br style=&quot;border-color: var(--border-color);&quot;&gt;&lt;/div&gt;&lt;div style=&quot;border-color: var(--border-color); text-align: justify;&quot;&gt;&lt;span style=&quot;border-color: var(--border-color); background-color: initial;&quot;&gt;&lt;b style=&quot;border-color: var(--border-color);&quot;&gt;Outgress&lt;/b&gt;&lt;/span&gt;&lt;/div&gt;&lt;div style=&quot;border-color: var(--border-color); text-align: justify;&quot;&gt;&lt;span style=&quot;border-color: var(--border-color); background-color: initial;&quot;&gt;&lt;b&gt;TCP &lt;/b&gt;ALL 0.0.0.0/0&lt;/span&gt;&lt;/div&gt;" style="text;html=1;align=center;verticalAlign=middle;resizable=0;points=[];autosize=1;strokeColor=none;fillColor=none;" vertex="1" parent="1">
          <mxGeometry x="1208" y="-161.76" width="236" height="98" as="geometry" />
        </mxCell>
        <mxCell id="eHmNXadnh0xyZmfcW7uL-250" value="" style="group" vertex="1" connectable="0" parent="1">
          <mxGeometry x="-1216" y="-54" width="98" height="99.99574636119672" as="geometry" />
        </mxCell>
        <mxCell id="eHmNXadnh0xyZmfcW7uL-251" value="" style="sketch=0;outlineConnect=0;fontColor=#232F3E;gradientColor=none;fillColor=#B0084D;strokeColor=none;dashed=0;verticalLabelPosition=bottom;verticalAlign=top;align=center;html=1;fontSize=12;fontStyle=0;aspect=fixed;pointerEvents=1;shape=mxgraph.aws4.template;" vertex="1" parent="eHmNXadnh0xyZmfcW7uL-250">
          <mxGeometry x="18.846153846153847" width="47.54885672156342" height="57.05862806587611" as="geometry" />
        </mxCell>
        <mxCell id="eHmNXadnh0xyZmfcW7uL-252" value="&lt;div style=&quot;&quot;&gt;&lt;span style=&quot;background-color: initial;&quot;&gt;Ddb&lt;/span&gt;&lt;/div&gt;&lt;div style=&quot;&quot;&gt;&lt;b style=&quot;background-color: initial;&quot;&gt;(SAM)&lt;/b&gt;&lt;br&gt;&lt;/div&gt;" style="text;html=1;align=center;verticalAlign=middle;resizable=0;points=[];autosize=1;strokeColor=none;fillColor=none;" vertex="1" parent="eHmNXadnh0xyZmfcW7uL-250">
          <mxGeometry x="14.398049492012928" y="52.99574636119672" width="53" height="41" as="geometry" />
        </mxCell>
        <mxCell id="eHmNXadnh0xyZmfcW7uL-259" style="edgeStyle=orthogonalEdgeStyle;orthogonalLoop=1;jettySize=auto;html=1;" edge="1" parent="1" source="eHmNXadnh0xyZmfcW7uL-253" target="eHmNXadnh0xyZmfcW7uL-255">
          <mxGeometry relative="1" as="geometry" />
        </mxCell>
        <mxCell id="eHmNXadnh0xyZmfcW7uL-253" value="" style="sketch=0;outlineConnect=0;fontColor=#232F3E;gradientColor=none;fillColor=#2E27AD;strokeColor=none;dashed=0;verticalLabelPosition=bottom;verticalAlign=top;align=center;html=1;fontSize=12;fontStyle=0;aspect=fixed;pointerEvents=1;shape=mxgraph.aws4.dynamodb_stream;" vertex="1" parent="1">
          <mxGeometry x="1063" y="1177" width="78" height="78" as="geometry" />
        </mxCell>
        <mxCell id="eHmNXadnh0xyZmfcW7uL-260" style="edgeStyle=orthogonalEdgeStyle;orthogonalLoop=1;jettySize=auto;html=1;" edge="1" parent="1" source="eHmNXadnh0xyZmfcW7uL-254" target="eHmNXadnh0xyZmfcW7uL-253">
          <mxGeometry relative="1" as="geometry" />
        </mxCell>
        <mxCell id="eHmNXadnh0xyZmfcW7uL-254" value="" style="sketch=0;outlineConnect=0;fontColor=#232F3E;gradientColor=none;fillColor=#2E27AD;strokeColor=none;dashed=0;verticalLabelPosition=bottom;verticalAlign=top;align=center;html=1;fontSize=12;fontStyle=0;aspect=fixed;pointerEvents=1;shape=mxgraph.aws4.table;" vertex="1" parent="1">
          <mxGeometry x="854" y="1177" width="78" height="78" as="geometry" />
        </mxCell>
        <mxCell id="eHmNXadnh0xyZmfcW7uL-263" style="edgeStyle=orthogonalEdgeStyle;orthogonalLoop=1;jettySize=auto;html=1;startArrow=classic;startFill=1;" edge="1" parent="1" source="eHmNXadnh0xyZmfcW7uL-255" target="eHmNXadnh0xyZmfcW7uL-265">
          <mxGeometry relative="1" as="geometry">
            <Array as="points">
              <mxPoint x="1303" y="1081" />
            </Array>
          </mxGeometry>
        </mxCell>
        <mxCell id="eHmNXadnh0xyZmfcW7uL-255" value="" style="sketch=0;points=[[0,0,0],[0.25,0,0],[0.5,0,0],[0.75,0,0],[1,0,0],[0,1,0],[0.25,1,0],[0.5,1,0],[0.75,1,0],[1,1,0],[0,0.25,0],[0,0.5,0],[0,0.75,0],[1,0.25,0],[1,0.5,0],[1,0.75,0]];outlineConnect=0;fontColor=#232F3E;gradientColor=#F78E04;gradientDirection=north;fillColor=#D05C17;strokeColor=#ffffff;dashed=0;verticalLabelPosition=bottom;verticalAlign=top;align=center;html=1;fontSize=12;fontStyle=0;aspect=fixed;shape=mxgraph.aws4.resourceIcon;resIcon=mxgraph.aws4.lambda;" vertex="1" parent="1">
          <mxGeometry x="1264" y="1177" width="78" height="78" as="geometry" />
        </mxCell>
        <mxCell id="eHmNXadnh0xyZmfcW7uL-256" value="CruddurStreamMessaging&lt;br&gt;Python:3.9, x86_64" style="text;html=1;align=left;verticalAlign=middle;resizable=0;points=[];autosize=1;strokeColor=none;fillColor=none;" vertex="1" parent="1">
          <mxGeometry x="1227" y="1256" width="158" height="41" as="geometry" />
        </mxCell>
        <mxCell id="eHmNXadnh0xyZmfcW7uL-257" value="cruddur-messages&lt;br&gt;(DynamoDB Table)" style="text;html=1;align=center;verticalAlign=middle;resizable=0;points=[];autosize=1;strokeColor=none;fillColor=none;" vertex="1" parent="1">
          <mxGeometry x="831" y="1255.5" width="119" height="41" as="geometry" />
        </mxCell>
        <mxCell id="eHmNXadnh0xyZmfcW7uL-258" value="DynamoDB Stream" style="text;html=1;align=center;verticalAlign=middle;resizable=0;points=[];autosize=1;strokeColor=none;fillColor=none;" vertex="1" parent="1">
          <mxGeometry x="1008.5" y="1261" width="121" height="26" as="geometry" />
        </mxCell>
        <mxCell id="eHmNXadnh0xyZmfcW7uL-261" value="BATCH_SIZE: 1" style="text;html=1;align=center;verticalAlign=middle;resizable=0;points=[];autosize=1;strokeColor=none;fillColor=none;" vertex="1" parent="1">
          <mxGeometry x="939.5" y="1185" width="104" height="26" as="geometry" />
        </mxCell>
        <mxCell id="eHmNXadnh0xyZmfcW7uL-262" value="NEW_IMAGE" style="text;html=1;align=center;verticalAlign=middle;resizable=0;points=[];autosize=1;strokeColor=none;fillColor=none;" vertex="1" parent="1">
          <mxGeometry x="1152" y="1185" width="91" height="26" as="geometry" />
        </mxCell>
        <mxCell id="eHmNXadnh0xyZmfcW7uL-264" value="Updates Items" style="text;html=1;align=center;verticalAlign=middle;resizable=0;points=[];autosize=1;strokeColor=none;fillColor=none;" vertex="1" parent="1">
          <mxGeometry x="1050" y="1056" width="95" height="26" as="geometry" />
        </mxCell>
        <mxCell id="eHmNXadnh0xyZmfcW7uL-265" value="" style="sketch=0;outlineConnect=0;fontColor=#232F3E;gradientColor=none;fillColor=#2E27AD;strokeColor=none;dashed=0;verticalLabelPosition=bottom;verticalAlign=top;align=center;html=1;fontSize=12;fontStyle=0;aspect=fixed;pointerEvents=1;shape=mxgraph.aws4.item;" vertex="1" parent="1">
          <mxGeometry x="854" y="1042" width="78" height="78" as="geometry" />
        </mxCell>
        <mxCell id="eHmNXadnh0xyZmfcW7uL-267" value="DynamoDB Item" style="text;html=1;align=center;verticalAlign=middle;resizable=0;points=[];autosize=1;strokeColor=none;fillColor=none;" vertex="1" parent="1">
          <mxGeometry x="837.5" y="1120" width="106" height="26" as="geometry" />
        </mxCell>
        <mxCell id="eHmNXadnh0xyZmfcW7uL-271" value="" style="group" vertex="1" connectable="0" parent="1">
          <mxGeometry x="-1237.47" y="67.9" width="140.93" height="109" as="geometry" />
        </mxCell>
        <mxCell id="eHmNXadnh0xyZmfcW7uL-272" value="" style="sketch=0;outlineConnect=0;fontColor=#232F3E;gradientColor=none;fillColor=#B0084D;strokeColor=none;dashed=0;verticalLabelPosition=bottom;verticalAlign=top;align=center;html=1;fontSize=12;fontStyle=0;aspect=fixed;pointerEvents=1;shape=mxgraph.aws4.template;" vertex="1" parent="eHmNXadnh0xyZmfcW7uL-271">
          <mxGeometry x="27.10192307692308" width="68.12499999999999" height="81.74999999999999" as="geometry" />
        </mxCell>
        <mxCell id="eHmNXadnh0xyZmfcW7uL-273" value="Auth" style="text;html=1;align=center;verticalAlign=middle;resizable=0;points=[];autosize=1;strokeColor=none;fillColor=none;" vertex="1" parent="eHmNXadnh0xyZmfcW7uL-271">
          <mxGeometry x="40.58759615384616" y="81.74999999999999" width="43" height="26" as="geometry" />
        </mxCell>
        <mxCell id="eHmNXadnh0xyZmfcW7uL-274" value="" style="sketch=0;points=[[0,0,0],[0.25,0,0],[0.5,0,0],[0.75,0,0],[1,0,0],[0,1,0],[0.25,1,0],[0.5,1,0],[0.75,1,0],[1,1,0],[0,0.25,0],[0,0.5,0],[0,0.75,0],[1,0.25,0],[1,0.5,0],[1,0.75,0]];outlineConnect=0;fontColor=#232F3E;gradientColor=#4D72F3;gradientDirection=north;fillColor=#3334B9;strokeColor=#ffffff;dashed=0;verticalLabelPosition=bottom;verticalAlign=top;align=center;html=1;fontSize=12;fontStyle=0;aspect=fixed;shape=mxgraph.aws4.resourceIcon;resIcon=mxgraph.aws4.cloud_development_kit;" vertex="1" parent="1">
          <mxGeometry x="-1206" y="-234" width="78" height="78" as="geometry" />
        </mxCell>
        <mxCell id="eHmNXadnh0xyZmfcW7uL-275" value="Serverless Images&lt;br&gt;(CDK)" style="text;html=1;align=center;verticalAlign=middle;resizable=0;points=[];autosize=1;strokeColor=none;fillColor=none;" vertex="1" parent="1">
          <mxGeometry x="-1225.5" y="-128" width="117" height="41" as="geometry" />
        </mxCell>
        <mxCell id="eHmNXadnh0xyZmfcW7uL-329" value="" style="rounded=0;whiteSpace=wrap;html=1;" vertex="1" parent="1">
          <mxGeometry x="-1827" y="255.89999999999998" width="153.21" height="83" as="geometry" />
        </mxCell>
        <mxCell id="eHmNXadnh0xyZmfcW7uL-321" value="&lt;h4 style=&quot;line-height: 0%;&quot;&gt;Cluster Exports&lt;/h4&gt;" style="text;html=1;align=center;verticalAlign=middle;resizable=0;points=[];autosize=1;strokeColor=none;fillColor=none;strokeWidth=0;sketch=1;curveFitting=1;jiggle=2;opacity=20;" vertex="1" parent="1">
          <mxGeometry x="-1803.9" y="257.9" width="107" height="44" as="geometry" />
        </mxCell>
        <mxCell id="eHmNXadnh0xyZmfcW7uL-323" value="ServiceName" style="rounded=1;whiteSpace=wrap;html=1;fillColor=#ddc85f;" vertex="1" parent="1">
          <mxGeometry x="-1815" y="301.9" width="132" height="19" as="geometry" />
        </mxCell>
        <mxCell id="eHmNXadnh0xyZmfcW7uL-331" style="edgeStyle=orthogonalEdgeStyle;orthogonalLoop=1;jettySize=auto;html=1;entryX=0.01;entryY=0.4;entryDx=0;entryDy=0;entryPerimeter=0;" edge="1" parent="1" source="eHmNXadnh0xyZmfcW7uL-84" target="eHmNXadnh0xyZmfcW7uL-329">
          <mxGeometry relative="1" as="geometry" />
        </mxCell>
        <mxCell id="eHmNXadnh0xyZmfcW7uL-336" style="edgeStyle=orthogonalEdgeStyle;orthogonalLoop=1;jettySize=auto;html=1;startArrow=classic;startFill=1;" edge="1" parent="1" source="eHmNXadnh0xyZmfcW7uL-332" target="eHmNXadnh0xyZmfcW7uL-93">
          <mxGeometry relative="1" as="geometry">
            <Array as="points">
              <mxPoint x="-2131" y="467" />
            </Array>
          </mxGeometry>
        </mxCell>
        <mxCell id="eHmNXadnh0xyZmfcW7uL-332" value="ClusterName" style="rounded=1;whiteSpace=wrap;html=1;fillColor=#ddc85f;" vertex="1" parent="1">
          <mxGeometry x="-2196" y="317.9" width="130" height="16" as="geometry" />
        </mxCell>
        <mxCell id="eHmNXadnh0xyZmfcW7uL-333" style="edgeStyle=orthogonalEdgeStyle;orthogonalLoop=1;jettySize=auto;html=1;endArrow=none;endFill=0;startArrow=classic;startFill=1;" edge="1" parent="1" source="eHmNXadnh0xyZmfcW7uL-93" target="eHmNXadnh0xyZmfcW7uL-323">
          <mxGeometry relative="1" as="geometry">
            <Array as="points">
              <mxPoint x="-1750" y="453" />
            </Array>
          </mxGeometry>
        </mxCell>
        <mxCell id="eHmNXadnh0xyZmfcW7uL-337" value="" style="sketch=0;points=[[0,0,0],[0.25,0,0],[0.5,0,0],[0.75,0,0],[1,0,0],[0,1,0],[0.25,1,0],[0.5,1,0],[0.75,1,0],[1,1,0],[0,0.25,0],[0,0.5,0],[0,0.75,0],[1,0.25,0],[1,0.5,0],[1,0.75,0]];outlineConnect=0;fontColor=#232F3E;gradientColor=#4D72F3;gradientDirection=north;fillColor=#3334B9;strokeColor=#ffffff;dashed=0;verticalLabelPosition=bottom;verticalAlign=top;align=center;html=1;fontSize=12;fontStyle=0;aspect=fixed;shape=mxgraph.aws4.resourceIcon;resIcon=mxgraph.aws4.codepipeline;" vertex="1" parent="1">
          <mxGeometry x="-481" y="976.73" width="39" height="39" as="geometry" />
        </mxCell>
        <mxCell id="eHmNXadnh0xyZmfcW7uL-349" style="edgeStyle=orthogonalEdgeStyle;orthogonalLoop=1;jettySize=auto;html=1;" edge="1" parent="1" source="eHmNXadnh0xyZmfcW7uL-338" target="eHmNXadnh0xyZmfcW7uL-347">
          <mxGeometry relative="1" as="geometry" />
        </mxCell>
        <mxCell id="eHmNXadnh0xyZmfcW7uL-350" style="edgeStyle=orthogonalEdgeStyle;orthogonalLoop=1;jettySize=auto;html=1;" edge="1" parent="1" source="eHmNXadnh0xyZmfcW7uL-338" target="eHmNXadnh0xyZmfcW7uL-203">
          <mxGeometry relative="1" as="geometry">
            <Array as="points">
              <mxPoint x="-224" y="1196" />
              <mxPoint x="245" y="1196" />
              <mxPoint x="245" y="1009" />
            </Array>
          </mxGeometry>
        </mxCell>
        <mxCell id="eHmNXadnh0xyZmfcW7uL-338" value="Bake Image" style="sketch=0;points=[[0,0,0],[0.25,0,0],[0.5,0,0],[0.75,0,0],[1,0,0],[0,1,0],[0.25,1,0],[0.5,1,0],[0.75,1,0],[1,1,0],[0,0.25,0],[0,0.5,0],[0,0.75,0],[1,0.25,0],[1,0.5,0],[1,0.75,0]];outlineConnect=0;fontColor=#232F3E;gradientColor=#4D72F3;gradientDirection=north;fillColor=#3334B9;strokeColor=#ffffff;dashed=0;verticalLabelPosition=bottom;verticalAlign=top;align=center;html=1;fontSize=12;fontStyle=0;aspect=fixed;shape=mxgraph.aws4.resourceIcon;resIcon=mxgraph.aws4.codebuild;" vertex="1" parent="1">
          <mxGeometry x="-253" y="1059.73" width="57" height="57" as="geometry" />
        </mxCell>
        <mxCell id="eHmNXadnh0xyZmfcW7uL-348" style="edgeStyle=orthogonalEdgeStyle;orthogonalLoop=1;jettySize=auto;html=1;" edge="1" parent="1" source="eHmNXadnh0xyZmfcW7uL-339" target="eHmNXadnh0xyZmfcW7uL-338">
          <mxGeometry relative="1" as="geometry" />
        </mxCell>
        <mxCell id="eHmNXadnh0xyZmfcW7uL-339" value="GitHub" style="dashed=0;outlineConnect=0;html=1;align=center;labelPosition=center;verticalLabelPosition=bottom;verticalAlign=top;shape=mxgraph.weblogos.github" vertex="1" parent="1">
          <mxGeometry x="-410" y="1060.73" width="56" height="56" as="geometry" />
        </mxCell>
        <mxCell id="eHmNXadnh0xyZmfcW7uL-341" value="CodePipeline" style="text;html=1;align=left;verticalAlign=middle;resizable=0;points=[];autosize=1;strokeColor=none;fillColor=none;" vertex="1" parent="1">
          <mxGeometry x="-440" y="988.23" width="89" height="26" as="geometry" />
        </mxCell>
        <mxCell id="eHmNXadnh0xyZmfcW7uL-344" value="Source Step" style="rounded=1;whiteSpace=wrap;html=1;fillColor=none;" vertex="1" parent="1">
          <mxGeometry x="-428" y="1031.73" width="103" height="23" as="geometry" />
        </mxCell>
        <mxCell id="eHmNXadnh0xyZmfcW7uL-345" value="Build Step" style="rounded=1;whiteSpace=wrap;html=1;fillColor=none;" vertex="1" parent="1">
          <mxGeometry x="-276" y="1031.73" width="103" height="23" as="geometry" />
        </mxCell>
        <mxCell id="eHmNXadnh0xyZmfcW7uL-346" value="Deploy Step" style="rounded=1;whiteSpace=wrap;html=1;fillColor=none;" vertex="1" parent="1">
          <mxGeometry x="-127" y="1031.73" width="103" height="23" as="geometry" />
        </mxCell>
        <mxCell id="eHmNXadnh0xyZmfcW7uL-355" style="edgeStyle=orthogonalEdgeStyle;orthogonalLoop=1;jettySize=auto;html=1;startArrow=classic;startFill=1;" edge="1" parent="1" source="eHmNXadnh0xyZmfcW7uL-347">
          <mxGeometry relative="1" as="geometry">
            <mxPoint x="492" y="-95" as="targetPoint" />
            <Array as="points">
              <mxPoint x="-11" y="1088" />
              <mxPoint x="-11" y="920" />
              <mxPoint x="-313" y="920" />
              <mxPoint x="-313" y="-242" />
              <mxPoint x="492" y="-242" />
            </Array>
          </mxGeometry>
        </mxCell>
        <mxCell id="eHmNXadnh0xyZmfcW7uL-347" value="&lt;font color=&quot;#ffffff&quot; style=&quot;font-size: 10px;&quot;&gt;ECS Deploy&lt;/font&gt;" style="shape=hexagon;perimeter=hexagonPerimeter2;whiteSpace=wrap;html=1;fixedSize=1;fillColor=#3943c7;" vertex="1" parent="1">
          <mxGeometry x="-117.5" y="1060.23" width="84" height="56" as="geometry" />
        </mxCell>
        <mxCell id="eHmNXadnh0xyZmfcW7uL-351" value="Push image:latest" style="text;html=1;align=center;verticalAlign=middle;resizable=0;points=[];autosize=1;strokeColor=none;fillColor=none;" vertex="1" parent="1">
          <mxGeometry x="49" y="1172" width="113" height="26" as="geometry" />
        </mxCell>
        <mxCell id="eHmNXadnh0xyZmfcW7uL-356" value="Trigger Deploy" style="text;html=1;align=center;verticalAlign=middle;resizable=0;points=[];autosize=1;strokeColor=none;fillColor=none;" vertex="1" parent="1">
          <mxGeometry x="-253" y="890" width="96" height="26" as="geometry" />
        </mxCell>
        <mxCell id="eHmNXadnh0xyZmfcW7uL-359" style="edgeStyle=orthogonalEdgeStyle;orthogonalLoop=1;jettySize=auto;html=1;entryX=0.048;entryY=0.436;entryDx=0;entryDy=0;entryPerimeter=0;dashed=1;dashPattern=8 8;endArrow=none;endFill=0;" edge="1" parent="1" source="eHmNXadnh0xyZmfcW7uL-357" target="eHmNXadnh0xyZmfcW7uL-337">
          <mxGeometry relative="1" as="geometry" />
        </mxCell>
        <mxCell id="eHmNXadnh0xyZmfcW7uL-357" value="" style="sketch=0;outlineConnect=0;fontColor=#232F3E;gradientColor=none;fillColor=#BF0816;strokeColor=none;dashed=0;verticalLabelPosition=bottom;verticalAlign=top;align=center;html=1;fontSize=12;fontStyle=0;aspect=fixed;pointerEvents=1;shape=mxgraph.aws4.role;" vertex="1" parent="1">
          <mxGeometry x="-631" y="971.73" width="78" height="44" as="geometry" />
        </mxCell>
        <mxCell id="eHmNXadnh0xyZmfcW7uL-358" value="CodePipelineRole" style="text;html=1;align=center;verticalAlign=middle;resizable=0;points=[];autosize=1;strokeColor=none;fillColor=none;" vertex="1" parent="1">
          <mxGeometry x="-733" y="983.23" width="114" height="26" as="geometry" />
        </mxCell>
        <mxCell id="eHmNXadnh0xyZmfcW7uL-360" value="" style="group" vertex="1" connectable="0" parent="1">
          <mxGeometry x="-1617" y="129.62" width="140.93" height="115.74999999999999" as="geometry" />
        </mxCell>
        <mxCell id="eHmNXadnh0xyZmfcW7uL-361" value="" style="sketch=0;outlineConnect=0;fontColor=#232F3E;gradientColor=none;fillColor=#B0084D;strokeColor=none;dashed=0;verticalLabelPosition=bottom;verticalAlign=top;align=center;html=1;fontSize=12;fontStyle=0;aspect=fixed;pointerEvents=1;shape=mxgraph.aws4.template;" vertex="1" parent="eHmNXadnh0xyZmfcW7uL-360">
          <mxGeometry x="27.10192307692308" width="68.12499999999999" height="81.74999999999999" as="geometry" />
        </mxCell>
        <mxCell id="eHmNXadnh0xyZmfcW7uL-362" value="Frontend&lt;br&gt;(CloudFront)" style="text;html=1;align=center;verticalAlign=middle;resizable=0;points=[];autosize=1;strokeColor=none;fillColor=none;" vertex="1" parent="eHmNXadnh0xyZmfcW7uL-360">
          <mxGeometry x="20.587596153846157" y="74.74999999999999" width="85" height="41" as="geometry" />
        </mxCell>
        <mxCell id="eHmNXadnh0xyZmfcW7uL-382" style="edgeStyle=orthogonalEdgeStyle;orthogonalLoop=1;jettySize=auto;html=1;" edge="1" parent="1" source="eHmNXadnh0xyZmfcW7uL-365" target="eHmNXadnh0xyZmfcW7uL-380">
          <mxGeometry relative="1" as="geometry" />
        </mxCell>
        <mxCell id="eHmNXadnh0xyZmfcW7uL-398" style="edgeStyle=orthogonalEdgeStyle;orthogonalLoop=1;jettySize=auto;html=1;startArrow=classic;startFill=1;" edge="1" parent="1" source="eHmNXadnh0xyZmfcW7uL-365" target="eHmNXadnh0xyZmfcW7uL-396">
          <mxGeometry relative="1" as="geometry" />
        </mxCell>
        <mxCell id="eHmNXadnh0xyZmfcW7uL-365" value="" style="sketch=0;outlineConnect=0;fontColor=#232F3E;gradientColor=none;fillColor=#4D27AA;strokeColor=none;dashed=0;verticalLabelPosition=bottom;verticalAlign=top;align=center;html=1;fontSize=12;fontStyle=0;aspect=fixed;pointerEvents=1;shape=mxgraph.aws4.download_distribution;" vertex="1" parent="1">
          <mxGeometry x="-790.5" y="-570" width="90" height="90" as="geometry" />
        </mxCell>
        <mxCell id="eHmNXadnh0xyZmfcW7uL-366" value="&lt;font style=&quot;font-size: 10px;&quot;&gt;Aliases:&lt;br&gt;www.eoyebamiji.com&lt;br&gt;eoyebamiji.com&lt;/font&gt;" style="text;html=1;align=left;verticalAlign=middle;resizable=0;points=[];autosize=1;strokeColor=none;fillColor=none;" vertex="1" parent="1">
          <mxGeometry x="-751" y="-436" width="111" height="55" as="geometry" />
        </mxCell>
        <mxCell id="eHmNXadnh0xyZmfcW7uL-367" value="Frontend CloudFront&lt;br&gt;(Distribution)" style="text;html=1;align=center;verticalAlign=middle;resizable=0;points=[];autosize=1;strokeColor=none;fillColor=none;" vertex="1" parent="1">
          <mxGeometry x="-760" y="-475" width="129" height="41" as="geometry" />
        </mxCell>
        <mxCell id="eHmNXadnh0xyZmfcW7uL-374" style="edgeStyle=orthogonalEdgeStyle;orthogonalLoop=1;jettySize=auto;html=1;" edge="1" parent="1" source="eHmNXadnh0xyZmfcW7uL-369" target="eHmNXadnh0xyZmfcW7uL-372">
          <mxGeometry relative="1" as="geometry" />
        </mxCell>
        <mxCell id="eHmNXadnh0xyZmfcW7uL-369" value="" style="sketch=0;outlineConnect=0;fontColor=#232F3E;gradientColor=none;fillColor=#4D27AA;strokeColor=none;dashed=0;verticalLabelPosition=bottom;verticalAlign=top;align=center;html=1;fontSize=12;fontStyle=0;aspect=fixed;pointerEvents=1;shape=mxgraph.aws4.hosted_zone;" vertex="1" parent="1">
          <mxGeometry x="-1216" y="-543" width="78" height="77" as="geometry" />
        </mxCell>
        <mxCell id="eHmNXadnh0xyZmfcW7uL-370" value="&lt;div style=&quot;&quot;&gt;&lt;span style=&quot;background-color: initial;&quot;&gt;eoyebamiji.com.&lt;/span&gt;&lt;/div&gt;&lt;div style=&quot;&quot;&gt;&lt;span style=&quot;background-color: initial;&quot;&gt;(Route 53 Hosted Zone)&lt;/span&gt;&lt;/div&gt;" style="text;html=1;align=right;verticalAlign=middle;resizable=0;points=[];autosize=1;strokeColor=none;fillColor=none;" vertex="1" parent="1">
          <mxGeometry x="-1363" y="-543" width="147" height="41" as="geometry" />
        </mxCell>
        <mxCell id="eHmNXadnh0xyZmfcW7uL-399" style="edgeStyle=orthogonalEdgeStyle;orthogonalLoop=1;jettySize=auto;html=1;endArrow=none;endFill=0;" edge="1" parent="1" source="eHmNXadnh0xyZmfcW7uL-372">
          <mxGeometry relative="1" as="geometry">
            <mxPoint x="-821.674157303371" y="-525" as="targetPoint" />
          </mxGeometry>
        </mxCell>
        <mxCell id="eHmNXadnh0xyZmfcW7uL-372" value="A Alias eoyebamiji.com" style="rounded=1;whiteSpace=wrap;html=1;fillColor=none;" vertex="1" parent="1">
          <mxGeometry x="-1016" y="-542" width="153.5" height="34" as="geometry" />
        </mxCell>
        <mxCell id="eHmNXadnh0xyZmfcW7uL-375" style="edgeStyle=orthogonalEdgeStyle;orthogonalLoop=1;jettySize=auto;html=1;endArrow=none;endFill=0;startArrow=classic;startFill=1;" edge="1" parent="1" source="eHmNXadnh0xyZmfcW7uL-373">
          <mxGeometry relative="1" as="geometry">
            <mxPoint x="-1077" y="-509" as="targetPoint" />
            <Array as="points">
              <mxPoint x="-1077" y="-473" />
            </Array>
          </mxGeometry>
        </mxCell>
        <mxCell id="eHmNXadnh0xyZmfcW7uL-377" style="edgeStyle=orthogonalEdgeStyle;orthogonalLoop=1;jettySize=auto;html=1;" edge="1" parent="1" source="eHmNXadnh0xyZmfcW7uL-373" target="eHmNXadnh0xyZmfcW7uL-365">
          <mxGeometry relative="1" as="geometry" />
        </mxCell>
        <mxCell id="eHmNXadnh0xyZmfcW7uL-373" value="A Alias www.eoyebamiji.com" style="rounded=1;whiteSpace=wrap;html=1;fillColor=none;" vertex="1" parent="1">
          <mxGeometry x="-1016" y="-492" width="155.5" height="32" as="geometry" />
        </mxCell>
        <mxCell id="eHmNXadnh0xyZmfcW7uL-378" value="US-east-1" style="text;html=1;align=center;verticalAlign=middle;resizable=0;points=[];autosize=1;strokeColor=none;fillColor=none;" vertex="1" parent="1">
          <mxGeometry x="-405" y="-327" width="72" height="26" as="geometry" />
        </mxCell>
        <mxCell id="eHmNXadnh0xyZmfcW7uL-379" value="&lt;h4 style=&quot;font-size: 16px;&quot;&gt;&lt;b style=&quot;border-color: var(--border-color); color: rgb(35, 47, 62);&quot;&gt;ACM Certificate&lt;br&gt;&lt;/b&gt;*.eoyebamiji.com&lt;br&gt;&lt;span style=&quot;color: rgb(35, 47, 62);&quot;&gt;&lt;font style=&quot;font-size: 16px;&quot;&gt;eoyebamiji.com&lt;/font&gt;&lt;/span&gt;&lt;/h4&gt;" style="text;html=1;align=center;verticalAlign=middle;resizable=0;points=[];autosize=1;strokeColor=none;fillColor=none;" vertex="1" parent="1">
          <mxGeometry x="-704.5" y="-714.5" width="149" height="112" as="geometry" />
        </mxCell>
        <mxCell id="eHmNXadnh0xyZmfcW7uL-380" value="&lt;p style=&quot;line-height: 90%;&quot;&gt;&lt;br&gt;&lt;/p&gt;" style="sketch=0;points=[[0,0,0],[0.25,0,0],[0.5,0,0],[0.75,0,0],[1,0,0],[0,1,0],[0.25,1,0],[0.5,1,0],[0.75,1,0],[1,1,0],[0,0.25,0],[0,0.5,0],[0,0.75,0],[1,0.25,0],[1,0.5,0],[1,0.75,0]];outlineConnect=0;fontColor=#232F3E;gradientColor=#F54749;gradientDirection=north;fillColor=#C7131F;strokeColor=#ffffff;dashed=0;verticalLabelPosition=bottom;verticalAlign=top;align=center;html=1;fontSize=12;fontStyle=0;aspect=fixed;shape=mxgraph.aws4.resourceIcon;resIcon=mxgraph.aws4.certificate_manager_3;" vertex="1" parent="1">
          <mxGeometry x="-777.5" y="-696.5" width="64" height="64" as="geometry" />
        </mxCell>
        <mxCell id="eHmNXadnh0xyZmfcW7uL-381" value="US-east-1" style="text;html=1;align=center;verticalAlign=middle;resizable=0;points=[];autosize=1;strokeColor=none;fillColor=none;" vertex="1" parent="1">
          <mxGeometry x="-704.5" y="-621.5" width="72" height="26" as="geometry" />
        </mxCell>
        <mxCell id="eHmNXadnh0xyZmfcW7uL-385" style="edgeStyle=orthogonalEdgeStyle;orthogonalLoop=1;jettySize=auto;html=1;endArrow=none;endFill=0;startArrow=classic;startFill=1;" edge="1" parent="1">
          <mxGeometry relative="1" as="geometry">
            <mxPoint x="-1077" y="-485" as="targetPoint" />
            <mxPoint x="-1016" y="-428.5" as="sourcePoint" />
            <Array as="points">
              <mxPoint x="-1077" y="-428" />
              <mxPoint x="-1077" y="-483" />
            </Array>
          </mxGeometry>
        </mxCell>
        <mxCell id="eHmNXadnh0xyZmfcW7uL-386" style="edgeStyle=orthogonalEdgeStyle;orthogonalLoop=1;jettySize=auto;html=1;" edge="1" parent="1" source="eHmNXadnh0xyZmfcW7uL-383">
          <mxGeometry relative="1" as="geometry">
            <mxPoint x="-651" y="-92" as="targetPoint" />
            <Array as="points">
              <mxPoint x="-845" y="-427" />
              <mxPoint x="-845" y="-92" />
            </Array>
          </mxGeometry>
        </mxCell>
        <mxCell id="eHmNXadnh0xyZmfcW7uL-383" value="A Alias api.eoyebamiji.com" style="rounded=1;whiteSpace=wrap;html=1;fillColor=none;" vertex="1" parent="1">
          <mxGeometry x="-1016" y="-444.5" width="153.5" height="26.5" as="geometry" />
        </mxCell>
        <mxCell id="eHmNXadnh0xyZmfcW7uL-388" value="&lt;h4&gt;&lt;br&gt;&lt;/h4&gt;" style="sketch=0;outlineConnect=0;fontColor=#232F3E;gradientColor=none;fillColor=#3F8624;strokeColor=none;dashed=0;verticalLabelPosition=bottom;verticalAlign=top;align=center;html=1;fontSize=12;fontStyle=0;aspect=fixed;pointerEvents=1;shape=mxgraph.aws4.bucket_with_objects;" vertex="1" parent="1">
          <mxGeometry x="-317" y="-567.5" width="57.69" height="60" as="geometry" />
        </mxCell>
        <mxCell id="eHmNXadnh0xyZmfcW7uL-395" style="edgeStyle=orthogonalEdgeStyle;orthogonalLoop=1;jettySize=auto;html=1;startArrow=none;startFill=0;" edge="1" parent="1" source="eHmNXadnh0xyZmfcW7uL-391" target="eHmNXadnh0xyZmfcW7uL-388">
          <mxGeometry relative="1" as="geometry">
            <Array as="points">
              <mxPoint x="-238" y="-459" />
              <mxPoint x="-238" y="-590" />
              <mxPoint x="-284" y="-590" />
            </Array>
          </mxGeometry>
        </mxCell>
        <mxCell id="eHmNXadnh0xyZmfcW7uL-391" value="&lt;h4 style=&quot;border-color: var(--border-color);&quot;&gt;&lt;br&gt;&lt;/h4&gt;" style="sketch=0;outlineConnect=0;fontColor=#232F3E;gradientColor=none;fillColor=#3F8624;strokeColor=none;dashed=0;verticalLabelPosition=bottom;verticalAlign=top;align=center;html=1;fontSize=12;fontStyle=0;aspect=fixed;pointerEvents=1;shape=mxgraph.aws4.bucket;" vertex="1" parent="1">
          <mxGeometry x="-317" y="-489.5" width="58.65" height="61" as="geometry" />
        </mxCell>
        <mxCell id="eHmNXadnh0xyZmfcW7uL-392" value="eoyebamiji.com&lt;br&gt;index.html&lt;br&gt;&lt;i&gt;Allow BucketPolicy&lt;/i&gt;" style="text;html=1;align=left;verticalAlign=middle;resizable=0;points=[];autosize=1;strokeColor=none;fillColor=none;strokeWidth=0;labelPosition=center;verticalLabelPosition=middle;spacing=0;" vertex="1" parent="1">
          <mxGeometry x="-230.00000000000003" y="-581" width="115" height="51" as="geometry" />
        </mxCell>
        <mxCell id="eHmNXadnh0xyZmfcW7uL-394" value="www.eoyebamiji.com&lt;br&gt;redirects" style="text;html=1;align=left;verticalAlign=middle;resizable=0;points=[];autosize=1;strokeColor=none;fillColor=none;strokeWidth=0;labelPosition=center;verticalLabelPosition=middle;spacing=0;" vertex="1" parent="1">
          <mxGeometry x="-225.00000000000003" y="-470" width="126" height="37" as="geometry" />
        </mxCell>
        <mxCell id="eHmNXadnh0xyZmfcW7uL-403" style="edgeStyle=orthogonalEdgeStyle;orthogonalLoop=1;jettySize=auto;html=1;" edge="1" parent="1" source="eHmNXadnh0xyZmfcW7uL-396" target="eHmNXadnh0xyZmfcW7uL-388">
          <mxGeometry relative="1" as="geometry" />
        </mxCell>
        <mxCell id="eHmNXadnh0xyZmfcW7uL-404" style="edgeStyle=orthogonalEdgeStyle;orthogonalLoop=1;jettySize=auto;html=1;" edge="1" parent="1" source="eHmNXadnh0xyZmfcW7uL-396" target="eHmNXadnh0xyZmfcW7uL-391">
          <mxGeometry relative="1" as="geometry">
            <Array as="points">
              <mxPoint x="-355" y="-525" />
              <mxPoint x="-355" y="-446" />
            </Array>
          </mxGeometry>
        </mxCell>
        <mxCell id="eHmNXadnh0xyZmfcW7uL-396" value="Origin&lt;br&gt;eoyebamiji.com.s3.amazonaws.com&#x9;" style="rounded=1;whiteSpace=wrap;html=1;fillColor=none;" vertex="1" parent="1">
          <mxGeometry x="-614" y="-541.5" width="221" height="34" as="geometry" />
        </mxCell>
        <mxCell id="eHmNXadnh0xyZmfcW7uL-402" style="edgeStyle=orthogonalEdgeStyle;orthogonalLoop=1;jettySize=auto;html=1;" edge="1" parent="1" source="eHmNXadnh0xyZmfcW7uL-397" target="eHmNXadnh0xyZmfcW7uL-396">
          <mxGeometry relative="1" as="geometry" />
        </mxCell>
        <mxCell id="eHmNXadnh0xyZmfcW7uL-397" value="OAI" style="rounded=1;whiteSpace=wrap;html=1;fillColor=none;" vertex="1" parent="1">
          <mxGeometry x="-556.5" y="-464.5" width="106" height="26" as="geometry" />
        </mxCell>
        <mxCell id="eHmNXadnh0xyZmfcW7uL-408" style="edgeStyle=orthogonalEdgeStyle;orthogonalLoop=1;jettySize=auto;html=1;startArrow=classic;startFill=1;" edge="1" parent="1" source="eHmNXadnh0xyZmfcW7uL-407" target="eHmNXadnh0xyZmfcW7uL-388">
          <mxGeometry relative="1" as="geometry">
            <Array as="points">
              <mxPoint x="-298" y="-644" />
            </Array>
          </mxGeometry>
        </mxCell>
        <mxCell id="eHmNXadnh0xyZmfcW7uL-407" value="BucketPolicy" style="sketch=0;outlineConnect=0;fontColor=#232F3E;gradientColor=none;fillColor=#BF0816;strokeColor=none;dashed=0;verticalLabelPosition=bottom;verticalAlign=top;align=center;html=1;fontSize=12;fontStyle=0;aspect=fixed;pointerEvents=1;shape=mxgraph.aws4.permissions;" vertex="1" parent="1">
          <mxGeometry x="-210" y="-673" width="49.28" height="62" as="geometry" />
        </mxCell>
      </root>
    </mxGraphModel>
  </diagram>
</mxfile>
